<?xml version="1.0" standalone="no"?>
<!DOCTYPE svg PUBLIC "-//W3C//DTD SVG 1.1//EN" "http://www.w3.org/Graphics/SVG/1.1/DTD/svg11.dtd">
<svg xmlns="http://www.w3.org/2000/svg">
<defs >
<font id="LuckiestGuy" horiz-adv-x="1051" ><font-face
    font-family="Luckiest Guy"
    units-per-em="2048"
    panose-1="2 0 5 6 0 0 0 2 0 4"
    ascent="1440"
    descent="-608"
    alphabetic="0" />
<glyph unicode=" " glyph-name="space" horiz-adv-x="400" />
<glyph unicode="!" glyph-name="exclam" horiz-adv-x="572" d="M541 1486L459 434H89L51 1486H541ZM475 126Q475 82 458 44T413 -22T346 -67T265 -84Q221 -84 183 -68T117 -23T72 44T55 126Q55 169 71 208T116 275T183 321T265 338Q308 338 346 321T412 276T458
208T475 126Z" />
<glyph unicode="&quot;" glyph-name="quotedbl" horiz-adv-x="982" d="M490 1616L378 1008L70 998L8 1606L490 1616ZM990 1556L878 948L570 938L508 1546L990 1556Z" />
<glyph unicode="#" glyph-name="numbersign" horiz-adv-x="1242" d="M1146 764L966 768L944 608L1118 610L1080 340H904L880 166L552 170L580 340H482L458 210L166 216L186 340L42 338L88 606H232L266 784L116 786L164 1046L312 1042L336 1196L620 1178L596 1038H700L744
1280L1038 1270L1004 1030L1182 1028L1146 764ZM554 778L524 606L626 608L656 776L554 778Z" />
<glyph unicode="$" glyph-name="dollar" horiz-adv-x="894" d="M293 -138L303 256Q271 262 238 270T174 288T113 308T61 328L95 574Q158 542 236 526T391 510Q405 510 425 511T465 516T497 531T511 558Q511 576 492 585T446 599T392 605T351 606Q286 606 233 623T142
671T82 747T61 846Q61 897 78 941T127 1021T202 1084T297 1130L281 1552L389 1542V1154Q403 1157 416 1158T443 1162L441 1552L549 1550L535 1162Q601 1160 668 1150T791 1116L765 862Q712 876 656 886T549 896Q533 896 507 895T455 889T411 874T393 846Q394 831
406 824T436 813T478 809T522 810T563 812T593 812Q653 809 701 791T783 743T835 670T853 578Q853 508 830 454T764 361T664 296T535 258L551 -136L453 -146L449 248Q435 246 421 246T393 246H389L391 -144L293 -138Z" />
<glyph unicode="%" glyph-name="percent" horiz-adv-x="1484" d="M1443 426Q1443 373 1421 322T1357 230T1256 164T1121 138Q1047 138 988 163T887 229T823 321T801 426Q801 478 823 530T886 622T987 688T1121 714Q1196 714 1255 689T1357 623T1421 530T1443 426ZM1217
428Q1217 444 1212 462T1194 497T1164 525T1119 536Q1093 536 1074 525T1043 498T1025 463T1019 428Q1019 412 1025 394T1043 359T1074 331T1119 320Q1145 320 1163 331T1194 358T1211 393T1217 428ZM683 922Q683 869 661 818T597 726T496 660T361 634Q287 634
228 659T127 725T63 817T41 922Q41 974 63 1026T126 1118T227 1184T361 1210Q436 1210 495 1185T597 1119T661 1026T683 922ZM457 924Q457 940 452 958T434 993T404 1021T359 1032Q333 1032 314 1021T283 994T265 959T259 924Q259 908 265 890T283 855T314 827T359
816Q385 816 403 827T434 854T451 889T457 924ZM1083 1244Q955 965 846 677T641 94L433 170Q492 315 550 459T670 747T798 1030T939 1308L1083 1244Z" />
<glyph unicode="&amp;" glyph-name="ampersand" horiz-adv-x="1290" d="M1086 98Q1051 125 1016 150T946 202Q897 163 836 127T704 65T559 26T408 20Q321 26 246 54T116 128T35 231T16 354Q24 409 52 460T122 559T214 648T318 728Q280 765 247 806T189 892T154
983T150 1078Q160 1142 203 1199T312 1297T460 1359T632 1374Q714 1368 784 1335T905 1253T980 1145T996 1026Q989 978 965 936T907 857T830 785T744 716Q786 684 824 655T904 596Q922 622 939 650T970 708L1268 636Q1248 580 1216 524T1144 414Q1188 382 1230
353T1316 292L1086 98ZM622 1046Q625 1081 610 1103T562 1128Q529 1133 505 1115T478 1060Q476 1037 481 1014T495 968T517 925T540 888Q553 903 566 922T591 962T611 1004T622 1046ZM654 390Q624 426 592 464T530 538Q517 524 501 504T471 462T445 416T432 370Q430
341 448 317T496 290Q517 287 539 296T583 322T622 356T654 390Z" />
<glyph unicode="&apos;" glyph-name="quotesingle" horiz-adv-x="476" d="M494 1616L382 1008L74 998L12 1606L494 1616Z" />
<glyph unicode="(" glyph-name="parenleft" horiz-adv-x="797" d="M843 1404Q745 1347 672 1266T551 1092T479 902T455 714Q455 624 474 524T532 327T630 140T771 -20L413 -166Q340 -119 283 -54T183 86T111 245T63 410T36 572T27 722Q27 831 57 948T145 1178T291
1390T493 1560L843 1404Z" />
<glyph unicode=")" glyph-name="parenright" horiz-adv-x="782" d="M756 672Q756 599 743 522T703 368T638 215T546 70T430 -59T288 -166L-60 -10Q37 48 109 129T227 302T297 492T320 680Q320 771 302 871T245 1068T149 1255T10 1416L366 1560Q439 1512 496 1447T597
1306T670 1148T720 983T747 821T756 672Z" />
<glyph unicode="*" glyph-name="asterisk" horiz-adv-x="1110" d="M811 920L1001 684L741 474L553 760L371 458L111 658L293 880L41 978L163 1268L375 1162L369 1460L701 1472L689 1150L903 1310L1051 1014L811 920Z" />
<glyph unicode="+" glyph-name="plus" horiz-adv-x="933" d="M306 226L304 488L54 492L50 792L300 800V1036L610 1068L614 814L876 822L880 480L618 484L622 222L306 226Z" />
<glyph unicode="," glyph-name="comma" horiz-adv-x="456" d="M436 222Q435 175 416 118T360 6T274 -99T160 -182Q160 -181 159 -159T157 -104T153 -34T150 32Q88 55 52 109T16 228Q16 271 32 309T77 375T144 421T226 438Q269 438 307 421T374 376T420 309T436 228V222Z" />
<glyph unicode="-" glyph-name="hyphen" horiz-adv-x="783" d="M69 552L65 852L711 882L715 540L69 552Z" />
<glyph unicode="." glyph-name="period" horiz-adv-x="454" d="M438 206Q438 162 421 124T376 58T309 13T228 -4Q184 -4 146 12T80 57T35 124T18 206Q18 249 34 288T79 355T146 401T228 418Q271 418 309 401T375 356T421 288T438 206Z" />
<glyph unicode="/" glyph-name="slash" horiz-adv-x="1034" d="M993 1360Q832 1011 696 651T441 -78L41 78Q114 259 187 439T336 798T496 1153T673 1500L993 1360Z" />
<glyph unicode="0" glyph-name="zero" horiz-adv-x="1296" d="M1267 716Q1267 628 1248 541T1191 374T1101 225T978 105T827 25T649 -4Q553 -4 470 25T319 105T196 225T105 374T49 541T29 716Q29 803 48 891T105 1059T196 1208T318 1329T470 1409T649 1438Q744
1438 826 1409T978 1329T1100 1209T1191 1059T1247 891T1267 716ZM845 686Q845 730 833 784T796 885T732 964T639 996Q584 996 545 964T481 885T443 784T431 686Q431 642 443 588T480 487T545 408T639 376Q693 376 732 408T796 487T833 588T845 686Z" />
<glyph unicode="1" glyph-name="one" horiz-adv-x="795" d="M750 1438L692 16L256 36L280 982L120 872L-30 1214L296 1458L750 1438Z" />
<glyph unicode="2" glyph-name="two" horiz-adv-x="1043" d="M1008 942Q1008 862 979 790T903 654T795 537T672 440H988L964 24L28 56V420Q81 438 139 463T254 522T361 596T450 685T511 791T534 914Q534 952 521 981T483 1029T428 1058T360 1068Q330 1068 299
1062T238 1043T182 1014T134 974L46 1366Q83 1403 131 1428T232 1468T340 1491T448 1498Q566 1498 668 1456T845 1339T964 1162T1008 942Z" />
<glyph unicode="3" glyph-name="three" horiz-adv-x="1081" d="M1046 504Q1046 371 1004 274T885 112T704 16T472 -16Q415 -16 355 -5T236 25T122 70T18 126L56 528Q94 502 141 479T238 437T340 407T440 396Q468 396 497 400T551 417T590 451T606 508Q606 530
586 549T538 581T480 602T430 610Q416 610 397 609T357 604T319 596T290 582L296 868Q313 866 328 865T360 864Q395 864 436 870T512 893T570 939T594 1014Q594 1047 576 1067T532 1099T474 1114T418 1118Q337 1118 259 1090T120 1008L36 1372Q128 1447 245 1486T482
1526Q591 1526 690 1495T866 1402T987 1250T1032 1042Q1032 1008 1022 973T995 905T955 844T906 794Q948 775 975 743T1018 672T1040 590T1046 504Z" />
<glyph unicode="4" glyph-name="four" horiz-adv-x="1104" d="M1068 480L980 478L962 46L510 6L534 468L0 456L148 1334H526L416 722L548 726L586 1484H1020L990 742L1068 746V480Z" />
<glyph unicode="5" glyph-name="five" horiz-adv-x="1087" d="M1066 504Q1066 374 1020 278T893 119T705 25T474 -6Q415 -6 358 2T246 25T136 59T26 100L64 498Q100 478 141 461T225 432T313 413T400 406Q425 406 461 410T530 427T586 461T610 518Q610 551 592
575T544 614T477 639T403 653T332 659T276 660Q231 660 185 656T94 640L134 1448L944 1470L966 1052L464 1080L454 902Q499 913 544 918T634 924Q725 924 803 895T940 810T1032 678T1066 504Z" />
<glyph unicode="6" glyph-name="six" horiz-adv-x="1174" d="M1158 510Q1158 388 1115 289T997 119T817 9T592 -30Q493 -30 414 -3T272 72T164 186T90 329T46 492T32 666Q32 774 48 876T97 1069T184 1235T310 1365T477 1449T690 1480Q733 1480 778 1477T868 1464T955
1440T1036 1402L1006 1008Q935 1043 853 1061T692 1080Q630 1080 585 1062T509 1009T461 928T438 822Q504 860 579 882T732 904Q820 904 898 877T1033 799T1124 675T1158 510ZM778 480Q778 511 765 535T730 577T680 604T624 614Q596 614 569 605T521 578T486 536T472
480Q472 450 485 426T520 384T569 358T624 348Q652 348 680 357T729 384T764 425T778 480Z" />
<glyph unicode="7" glyph-name="seven" horiz-adv-x="1036" d="M1010 1100Q909 817 827 587Q792 489 758 394T696 220T648 87T624 20L100 50L562 1044L18 1014V1446L1010 1464V1100Z" />
<glyph unicode="8" glyph-name="eight" horiz-adv-x="1170" d="M1141 442Q1141 361 1119 297T1059 184T968 99T853 42T721 9T581 -2Q480 -2 382 25T205 107T78 246T29 442Q29 488 40 534T72 623T125 699T199 756Q133 815 100 891T67 1056Q67 1159 112 1236T231
1366T397 1445T581 1472Q642 1472 703 1460T822 1425T928 1367T1014 1286T1072 1182T1093 1056Q1093 968 1060 892T961 756Q1057 706 1099 627T1141 442ZM747 960Q747 993 733 1019T694 1065T641 1094T581 1104Q550 1104 520 1094T466 1065T428 1020T413 960Q413
927 427 901T466 856T520 828T581 818Q611 818 640 828T694 856T732 900T747 960ZM745 490Q745 523 731 549T693 594T641 622T581 632Q551 632 522 622T468 594T430 550T415 490Q415 458 429 432T468 388T521 360T581 350Q611 350 640 360T693 388T730 432T745
490Z" />
<glyph unicode="9" glyph-name="nine" horiz-adv-x="1137" d="M1104 818Q1104 723 1089 627T1043 440T962 270T845 133T689 40T490 6Q442 6 390 10T286 25T185 54T96 102L148 480Q179 462 218 447T298 419T380 401T458 394Q516 394 558 410T630 458T678 532T704
630Q644 598 578 581T444 564Q360 564 284 590T151 664T60 783T26 942Q26 1056 67 1151T181 1314T351 1420T564 1458Q703 1458 804 1407T972 1268T1071 1064T1104 818ZM690 964Q690 994 677 1018T642 1059T594 1085T540 1094Q513 1094 487 1086T440 1061T407 1021T394
968Q394 939 407 915T442 874T490 848T544 838Q571 838 597 847T644 872T677 912T690 964Z" />
<glyph unicode=":" glyph-name="colon" horiz-adv-x="508" d="M464 206Q464 162 447 124T402 58T335 13T254 -4Q210 -4 172 12T106 57T61 124T44 206Q44 249 60 288T105 355T172 401T254 418Q297 418 335 401T401 356T447 288T464 206ZM464 846Q464 802 447 764T402
698T335 653T254 636Q210 636 172 652T106 697T61 764T44 846Q44 889 60 928T105 995T172 1041T254 1058Q297 1058 335 1041T401 996T447 928T464 846Z" />
<glyph unicode=";" glyph-name="semicolon" horiz-adv-x="506" d="M462 222Q461 175 442 118T386 6T300 -99T186 -182Q186 -181 185 -159T183 -104T179 -34T176 32Q114 55 78 109T42 228Q42 271 58 309T103 375T170 421T252 438Q295 438 333 421T400 376T446 309T462
228V222ZM462 846Q462 802 445 764T400 698T333 653T252 636Q208 636 170 652T104 697T59 764T42 846Q42 889 58 928T103 995T170 1041T252 1058Q295 1058 333 1041T399 996T445 928T462 846Z" />
<glyph unicode="&lt;" glyph-name="less" horiz-adv-x="932" d="M721 104L59 500L45 868L719 1294L861 954L371 698L885 448L721 104Z" />
<glyph unicode="=" glyph-name="equal" horiz-adv-x="800" d="M77 292L73 592H719L723 250L77 292ZM77 692L73 992L719 1022L723 680L77 692Z" />
<glyph unicode="&gt;" glyph-name="greater" horiz-adv-x="932" d="M212 104L68 448L560 704L48 954L210 1294L872 902L888 532L212 104Z" />
<glyph unicode="?" glyph-name="question" horiz-adv-x="1135" d="M647 390H309Q302 496 321 567T372 686T445 763T524 814T592 856T633 906Q640 924 637 947T617 992T565 1027T475 1042Q439 1042 390 1036T286 1016T180 983T85 938L41 1330Q78 1352 124 1375T227
1417T349 1448T491 1460Q614 1460 723 1426T915 1326T1045 1164T1093 942Q1093 847 1066 790T997 695T903 633T802 579T711 506T647 390ZM697 126Q697 82 680 44T635 -22T568 -67T487 -84Q443 -84 405 -68T339 -23T294 44T277 126Q277 169 293 208T338 275T405
321T487 338Q530 338 568 321T634 276T680 208T697 126Z" />
<glyph unicode="@" glyph-name="at" horiz-adv-x="1361" d="M1316 768Q1316 576 1237 477T1002 376Q943 374 899 383T825 407T779 439T758 470Q737 437 704 426T638 414Q588 414 544 428T466 471T414 546T394 654Q394 711 412 753T464 824T541 867T638 882Q677
882 714 863T774 796V898L986 900L980 538L1006 542Q1021 546 1033 564Q1043 579 1051 611T1060 700Q1060 789 1034 852T959 955T839 1013T678 1032Q580 1031 503 994Q470 978 439 953T383 891T343 801T328 680Q328 595 346 535T395 435T463 371T543 335Q637 308
758 330V140Q614 110 488 133T268 226T120 409T66 672Q66 819 105 923T205 1097T342 1207T492 1269T629 1296T730 1302Q865 1302 973 1260T1158 1146T1275 977T1316 768ZM614 662Q614 624 629 599T678 574Q711 574 732 599T754 662Q754 697 733 713T678 730Q614
730 614 662Z" />
<glyph unicode="A" glyph-name="A" horiz-adv-x="1282" d="M1312 86L816 22L756 248H528L478 22L-32 72L366 1404L922 1432L1312 86ZM720 554L644 902L570 554H720Z" />
<glyph unicode="B" glyph-name="B" horiz-adv-x="1217" d="M1215 356Q1215 273 1185 213T1103 111T986 43T847 1T703 -19T567 -24Q505 -24 439 -20T306 -4T176 25T55 72L53 1360Q109 1383 172 1401T300 1432T431 1451T557 1458Q628 1458 700 1449T840 1419T965
1365T1066 1282T1134 1168T1159 1018Q1159 962 1143 913T1097 825T1024 759T927 718Q992 701 1045 668T1136 588T1194 482T1215 356ZM707 926Q707 955 695 975T666 1009T628 1028T591 1034Q571 1034 552 1028T515 1014L509 792Q532 792 566 796T631 813T685 853T707
926ZM565 600Q536 600 509 594L505 366Q520 363 534 361T563 358Q584 358 609 362T656 380T692 417T707 478Q707 516 693 540T657 577T611 595T565 600Z" />
<glyph unicode="C" glyph-name="C" horiz-adv-x="1054" d="M1042 1406L986 984Q957 992 928 995T870 998Q796 998 729 979T611 919T529 819T498 678Q498 626 514 588T561 525T632 488T722 476Q759 476 799 484T878 505T954 535T1022 570L982 100Q943 80 898 65T804
38T708 20T616 14Q489 14 379 61T188 190T61 383T14 624Q14 795 63 946T207 1212T442 1392T766 1458Q835 1458 907 1447T1042 1406Z" />
<glyph unicode="D" glyph-name="D" horiz-adv-x="1193" d="M1184 794Q1184 654 1148 542T1048 342T894 191T699 88T474 28T228 8Q181 8 136 10T44 18L72 1360Q182 1395 298 1409T530 1424Q673 1424 793 1381T1000 1257T1135 1059T1184 794ZM774 730Q775 784 763
834T722 922T649 984T544 1010L504 390Q564 399 613 429T697 504T752 603T774 716V730Z" />
<glyph unicode="E" glyph-name="E" horiz-adv-x="981" d="M998 1442Q992 1348 987 1256T974 1070L550 1048L540 922H838L816 612L516 602L506 456H754H930Q924 346 918 238T906 20L44 0L76 1442H998Z" />
<glyph unicode="F" glyph-name="F" horiz-adv-x="998" d="M998 1442Q992 1348 987 1256T974 1070L550 1048V922H918L898 612L548 602L550 10L44 0L76 1442H998Z" />
<glyph unicode="G" glyph-name="G" horiz-adv-x="1283" d="M1258 204Q1211 145 1142 101T994 28T832 -15T674 -30Q529 -30 407 22T197 165T58 381T8 648Q8 757 33 861T104 1058T218 1228T370 1362T556 1449T772 1480Q815 1480 864 1477T961 1465T1056 1441T1140
1404L1112 1022Q1056 1043 997 1050T880 1058Q800 1058 731 1034T610 963T528 851T498 702Q498 650 512 602T554 516T625 455T724 432Q762 432 802 442T872 476L876 554L636 558L648 858Q797 863 946 866T1246 876L1258 204Z" />
<glyph unicode="H" glyph-name="H" horiz-adv-x="1282" d="M1238 0L738 -24L734 438H504L490 0H42L80 1406L556 1384L526 666H748L750 1438L1206 1426L1238 0Z" />
<glyph unicode="I" glyph-name="I" horiz-adv-x="609" d="M591 1408L481 46L59 24V1380L591 1408Z" />
<glyph unicode="J" glyph-name="J" horiz-adv-x="1044" d="M1006 824Q1006 765 1006 707T1000 590Q989 465 946 354T830 158T651 25T410 -24Q357 -24 300 -15T186 12T78 56T-14 118L48 532Q107 475 179 440T336 404Q391 404 429 420T492 464T531 529T552 609T560
697T562 786Q562 945 546 1102T518 1418L976 1448Q1006 1136 1006 824Z" />
<glyph unicode="K" glyph-name="K" horiz-adv-x="1258" d="M1319 1432L837 766L1243 58L779 -24L475 408L459 -44L43 -60L75 1472L541 1446L505 994L815 1472L1319 1432Z" />
<glyph unicode="L" glyph-name="L" horiz-adv-x="926" d="M930 570L888 126L46 60Q52 409 59 754T78 1448H598Q575 1229 554 1011T524 570Q571 568 617 568T710 568Q766 568 820 569T930 570Z" />
<glyph unicode="M" glyph-name="M" horiz-adv-x="1619" d="M1597 1458L1505 -10L1049 -30L1053 744L847 120H671L513 678L511 30L49 16L69 1398L583 1418L787 756L1059 1458H1597Z" />
<glyph unicode="N" glyph-name="N" horiz-adv-x="1441" d="M1411 1434L1339 78L815 30L535 756L491 16H41L77 1434L577 1458L923 738L939 1418L1411 1434Z" />
<glyph unicode="O" glyph-name="O" horiz-adv-x="1306" d="M1287 706Q1287 615 1266 531T1206 372T1110 237T983 131T829 63T653 38Q563 38 482 61T329 125T201 225T103 355T40 509T17 680Q17 767 38 850T98 1008T194 1144T319 1251T470 1321T641 1346Q786 1346
905 1301T1109 1173T1240 971T1287 706ZM843 680Q843 723 831 763T794 835T735 886T653 906Q606 906 569 889T506 843T465 774T451 690Q451 648 463 606T499 530T558 475T641 454Q688 454 725 472T789 522T829 595T843 680Z" />
<glyph unicode="P" glyph-name="P" horiz-adv-x="1220" d="M1216 962Q1216 865 1187 790T1108 659T989 564T844 501T683 465T520 452V-14H54Q54 215 55 442T58 900Q60 1022 59 1144T64 1390Q192 1428 320 1447T584 1466Q661 1466 738 1454T885 1414T1016 1347T1121
1250T1190 1123T1216 962ZM772 928Q772 993 733 1029T630 1066Q609 1066 587 1063T544 1054L532 762Q546 760 559 760T586 760Q622 760 655 772T715 806T756 859T772 928Z" />
<glyph unicode="Q" glyph-name="Q" horiz-adv-x="1415" d="M1395 744Q1395 592 1339 454T1169 212L1307 48L941 -188L855 48Q817 40 779 36T701 32Q605 32 517 56T352 123T212 229T104 367T34 531T9 716Q9 811 32 900T99 1069T204 1213T342 1326T506 1400T691
1426Q846 1426 975 1379T1198 1244T1343 1030T1395 744ZM909 716Q909 762 896 805T856 882T791 936T701 956Q651 956 611 939T543 890T499 817T483 726Q483 680 496 636T536 556T601 498T691 476Q740 476 780 495T849 548T893 624T909 716Z" />
<glyph unicode="R" glyph-name="R" horiz-adv-x="1241" d="M1223 964Q1223 886 1210 823T1167 706T1092 608T981 522L1219 98L769 10L615 436L491 432L473 16H43Q48 244 52 470T63 924Q65 1039 67 1152T75 1380Q145 1406 213 1423T349 1449T488 1462T633 1466Q747
1466 853 1435T1042 1340T1173 1183T1223 964ZM775 932Q775 974 764 1009T730 1069T674 1109T595 1124Q575 1124 556 1122T519 1114L503 742H527Q570 742 614 753T694 787T752 846T775 932Z" />
<glyph unicode="S" glyph-name="S" horiz-adv-x="1087" d="M1075 532Q1075 395 1028 293T898 122T705 20T467 -14Q418 -14 360 -1T241 31T126 73T27 116L71 528Q156 477 259 451T463 424Q482 424 509 425T560 434T602 457T619 500Q619 519 607 532T576 554T533
567T486 574T443 576T411 576Q325 576 255 606T134 689T55 816T27 976Q27 1094 74 1187T201 1346T384 1447T597 1482Q646 1482 698 1479T801 1466T902 1443T995 1408L957 1002Q889 1025 815 1040T669 1056Q656 1056 636 1056T593 1053T547 1045T506 1032T477 1009T467
976Q468 954 483 941T523 920T577 909T636 906T690 905T731 904Q811 899 875 870T983 793T1051 679T1075 532Z" />
<glyph unicode="T" glyph-name="T" horiz-adv-x="1112" d="M1108 1430L1098 1006L800 994L724 46L302 24L304 972L6 956L18 1428L1108 1430Z" />
<glyph unicode="U" glyph-name="U" horiz-adv-x="1276" d="M1247 1112Q1247 1038 1240 949T1217 765T1176 573T1112 385T1024 217T908 80T761 -12T581 -46Q465 -46 380 -9T233 92T133 240T72 419T42 612T33 802Q33 942 47 1081T87 1360L555 1342Q528 1185 509
1027T489 708Q489 691 490 658T496 583T507 498T528 418T559 359T603 336Q632 336 655 363T695 437T726 543T748 668T762 798T771 919T776 1018T777 1082Q777 1160 775 1237T767 1392H1235Q1247 1254 1247 1112Z" />
<glyph unicode="V" glyph-name="V" horiz-adv-x="1255" d="M1274 1402L908 10L412 -18L-38 1388L436 1432L628 612L814 1432L1274 1402Z" />
<glyph unicode="W" glyph-name="W" horiz-adv-x="1859" d="M1855 1388L1621 2L1053 -10L931 708L809 42L241 22L5 1388L501 1432L601 602L735 1432H1125L1281 592L1361 1432L1855 1388Z" />
<glyph unicode="X" glyph-name="X" horiz-adv-x="1205" d="M1255 1402L865 724L1197 134L779 4L599 412L387 2L-45 158L323 738L-13 1348L445 1458L609 1056L783 1458L1255 1402Z" />
<glyph unicode="Y" glyph-name="Y" horiz-adv-x="1243" d="M1336 1354L786 586L760 -40H286L298 582L12 1324L522 1388L602 956L856 1388L1336 1354Z" />
<glyph unicode="Z" glyph-name="Z" horiz-adv-x="997" d="M966 1098L508 480H950L944 56L52 20L12 412L534 1092L56 1056L52 1458H948L966 1098Z" />
<glyph unicode="[" glyph-name="bracketleft" horiz-adv-x="749" d="M737 1288L471 1294L441 140L721 138L719 -146Q636 -141 552 -140T383 -138Q305 -138 226 -140T69 -148Q63 98 63 344Q63 650 72 952T97 1558Q175 1563 251 1564T405 1566Q496 1566 582 1564T757
1552L737 1288Z" />
<glyph unicode="\" glyph-name="backslash" horiz-adv-x="1035" d="M675 -78Q581 92 498 268T339 622T189 982T43 1344L443 1500Q561 1132 697 772T995 62L675 -78Z" />
<glyph unicode="]" glyph-name="bracketright" horiz-adv-x="748" d="M686 1078Q686 772 677 469T650 -140Q573 -145 497 -146T342 -148Q253 -148 167 -145T-8 -134L10 134L276 126L308 1282L24 1284L28 1564Q111 1561 195 1559T364 1556Q444 1556 523 1558T680
1566Q683 1442 684 1322T686 1078Z" />
<glyph unicode="^" glyph-name="asciicircum" horiz-adv-x="994" d="M624 644Q623 643 615 673T593 747T565 844T538 942T517 1018T508 1050Q472 958 439 865T376 676L0 764Q23 819 55 890T124 1037T195 1183T258 1311T303 1401T322 1436L698 1444Q697 1443 713
1406T754 1309T812 1171T878 1014T941 856T994 718L624 644Z" />
<glyph unicode="_" glyph-name="underscore" horiz-adv-x="618" d="M-12 -424L-16 -124L630 -94L634 -436L-12 -424Z" />
<glyph unicode="`" glyph-name="grave" horiz-adv-x="580" d="M446 1366Q336 1449 226 1520T0 1660L198 1894Q278 1819 351 1748Q382 1717 414 1684T477 1619T534 1556T580 1500L446 1366Z" />
<glyph unicode="a" glyph-name="a" horiz-adv-x="1282" d="M1312 86L816 22L756 248H528L478 22L-32 72L366 1404L922 1432L1312 86ZM720 554L644 902L570 554H720Z" />
<glyph unicode="b" glyph-name="b" horiz-adv-x="1217" d="M1215 356Q1215 273 1185 213T1103 111T986 43T847 1T703 -19T567 -24Q505 -24 439 -20T306 -4T176 25T55 72L53 1360Q109 1383 172 1401T300 1432T431 1451T557 1458Q628 1458 700 1449T840 1419T965
1365T1066 1282T1134 1168T1159 1018Q1159 962 1143 913T1097 825T1024 759T927 718Q992 701 1045 668T1136 588T1194 482T1215 356ZM707 926Q707 955 695 975T666 1009T628 1028T591 1034Q571 1034 552 1028T515 1014L509 792Q532 792 566 796T631 813T685 853T707
926ZM565 600Q536 600 509 594L505 366Q520 363 534 361T563 358Q584 358 609 362T656 380T692 417T707 478Q707 516 693 540T657 577T611 595T565 600Z" />
<glyph unicode="c" glyph-name="c" horiz-adv-x="1050" d="M1005 1366L969 944Q940 952 912 955T855 958Q784 958 720 940T606 885T527 792T497 658Q497 602 513 561T560 492T634 450T731 436Q768 436 807 443T885 464T960 494T1027 530L1011 60Q972 40 927 25T835
-2T740 -20T649 -26Q507 -26 391 27T191 171T61 384T15 642Q15 806 61 948T198 1194T422 1358T729 1418Q798 1418 869 1407T1005 1366Z" />
<glyph unicode="d" glyph-name="d" horiz-adv-x="1195" d="M1184 794Q1184 654 1148 543T1048 347T894 201T699 103T474 46T228 28Q181 28 136 30T44 38L72 1340Q182 1375 298 1389T530 1404Q673 1404 793 1364T1000 1247T1135 1056T1184 794ZM504 410Q564 419
613 446T699 514T754 606T774 716Q774 773 762 822T723 908T652 966T544 990L504 410Z" />
<glyph unicode="e" glyph-name="e" horiz-adv-x="1181" d="M1167 808Q1167 721 1155 634Q984 623 815 599T477 550Q503 478 558 435T691 392Q731 392 778 407T873 444T963 493T1037 540L989 86Q950 56 905 35T810 1T711 -18T613 -24Q514 -24 432 3T284 78T167
193T84 337T34 502T17 678Q17 771 34 864T85 1043T172 1202T295 1331T453 1417T649 1448Q738 1448 811 1424T942 1356T1042 1252T1112 1121T1153 970T1167 808ZM767 860Q767 888 761 917T742 971T706 1010T651 1026Q611 1026 581 1005T528 951T492 880T471 810L767
838V860Z" />
<glyph unicode="f" glyph-name="f" horiz-adv-x="999" d="M997 1422Q991 1328 986 1236T973 1050L549 1028V902H917L897 592L547 582L549 30L43 20L75 1422H997Z" />
<glyph unicode="g" glyph-name="g" horiz-adv-x="1285" d="M1260 224Q1213 165 1144 121T996 48T834 5T676 -10Q531 -10 409 39T199 175T60 384T10 648Q10 757 35 860T106 1053T220 1218T372 1347T558 1430T774 1460Q817 1460 866 1457T963 1445T1058 1421T1142
1384L1114 1002Q1058 1023 999 1030T882 1038Q802 1038 733 1017T612 953T530 848T500 702Q500 650 514 602T556 516T627 455T726 432Q764 432 804 442T874 476L878 554L638 558L650 858Q799 863 948 866T1248 876L1260 224Z" />
<glyph unicode="h" glyph-name="h" horiz-adv-x="1282" d="M1238 40L738 16L734 438H504L490 0H42L80 1406L556 1384L526 666H748L750 1418L1206 1406L1238 40Z" />
<glyph unicode="i" glyph-name="i" horiz-adv-x="603" d="M573 1408L503 46L81 24L41 1380L573 1408Z" />
<glyph unicode="j" glyph-name="j" horiz-adv-x="1044" d="M1006 824Q1006 765 1006 707T1000 590Q989 465 946 354T830 158T651 25T410 -24Q357 -24 300 -15T186 12T78 56T-14 118L48 532Q107 475 179 440T336 404Q391 404 429 420T492 464T531 529T552 609T560
697T562 786Q562 945 546 1102T518 1418L976 1448Q1006 1136 1006 824Z" />
<glyph unicode="k" glyph-name="k" horiz-adv-x="1234" d="M1280 1292L838 766L1244 78L780 -4L476 408L460 16L44 0L76 1432L542 1406L506 994L796 1412L1280 1292Z" />
<glyph unicode="l" glyph-name="l" horiz-adv-x="924" d="M928 530L886 86L44 20L76 1448H596L522 530H928Z" />
<glyph unicode="m" glyph-name="m" horiz-adv-x="1839" d="M1799 678Q1799 535 1790 393T1769 108L1255 84Q1278 258 1296 432T1315 782Q1315 793 1314 820T1311 883T1304 955T1292 1024T1273 1076T1247 1096Q1212 1096 1192 1070T1163 1006T1151 931T1149 868Q1149
826 1151 784T1153 698Q1153 543 1146 389T1127 80L653 62Q676 236 693 409T711 758Q711 769 710 798T707 863T699 938T687 1009T668 1063T641 1084Q616 1084 599 1065T572 1014T556 946T548 872T545 806T543 760L521 30H17Q33 199 49 369T78 708T99 1048T107 1388L583
1408L581 1292Q603 1320 631 1348T690 1399T757 1436T831 1450Q880 1450 919 1443T989 1417T1045 1368T1087 1288Q1119 1323 1151 1353T1220 1404T1298 1438T1391 1450Q1488 1450 1556 1413T1669 1313T1740 1171T1779 1005T1795 834T1799 678Z" />
<glyph unicode="n" glyph-name="n" horiz-adv-x="1335" d="M1292 506Q1292 393 1290 283T1282 60L706 70Q736 247 758 423T780 780Q780 793 779 822T775 887T767 962T752 1033T729 1085T696 1106Q662 1106 639 1086T600 1035T575 964T562 886T556 813T554 756Q549
579 546 405T538 52L28 30Q48 383 66 732T96 1434L568 1458L564 1298Q592 1332 624 1362T694 1413T772 1447T860 1460Q945 1460 1009 1432T1119 1356T1196 1243T1246 1103T1275 949T1288 790T1292 639T1292 506Z" />
<glyph unicode="o" glyph-name="o" horiz-adv-x="1306" d="M1287 766Q1287 675 1266 591T1206 432T1110 297T983 191T829 123T653 98Q563 98 482 121T329 185T201 285T103 415T40 569T17 740Q17 827 38 910T98 1068T194 1204T319 1311T470 1381T641 1406Q786 1406
905 1361T1109 1233T1240 1031T1287 766ZM843 740Q843 783 831 823T794 895T735 946T653 966Q606 966 569 949T506 903T465 834T451 750Q451 708 463 666T499 590T558 535T641 514Q688 514 725 532T789 582T829 655T843 740Z" />
<glyph unicode="p" glyph-name="p" horiz-adv-x="1222" d="M1216 922Q1216 825 1187 750T1108 619T989 524T844 461T683 425T520 412V-14H54Q54 100 54 208T55 422T56 637T58 860Q60 982 59 1104T64 1350Q192 1388 320 1407T584 1426Q661 1426 738 1414T885 1374T1016
1307T1121 1210T1190 1082T1216 922ZM772 888Q772 953 733 989T630 1026Q609 1026 587 1023T544 1014L532 722Q546 720 559 720T586 720Q622 720 655 732T715 766T756 819T772 888Z" />
<glyph unicode="q" glyph-name="q" horiz-adv-x="1415" d="M1395 744Q1395 592 1339 454T1169 212L1307 48L941 -188L855 48Q817 40 779 36T701 32Q605 32 517 56T352 123T212 229T104 367T34 531T9 716Q9 811 32 900T99 1069T204 1213T342 1326T506 1400T691
1426Q846 1426 975 1379T1198 1244T1343 1030T1395 744ZM909 716Q909 762 896 805T856 882T791 936T701 956Q651 956 611 939T543 890T499 817T483 726Q483 680 496 636T536 556T601 498T691 476Q740 476 780 495T849 548T893 624T909 716Z" />
<glyph unicode="r" glyph-name="r" horiz-adv-x="1241" d="M1223 964Q1223 886 1210 823T1167 706T1092 608T981 522L1219 98L769 10L615 436L491 432L473 16H43Q48 244 52 470T63 924Q65 1039 67 1152T75 1380Q145 1406 213 1423T349 1449T488 1462T633 1466Q747
1466 853 1435T1042 1340T1173 1183T1223 964ZM775 932Q775 974 764 1009T730 1069T674 1109T595 1124Q575 1124 556 1122T519 1114L503 742H527Q570 742 614 753T694 787T752 846T775 932Z" />
<glyph unicode="s" glyph-name="s" horiz-adv-x="1089" d="M1076 512Q1076 375 1029 276T899 112T706 17T468 -14Q419 -14 361 -1T242 31T127 73T28 116L72 508Q157 457 260 431T464 404Q483 404 510 405T561 414T603 437T620 480Q620 499 608 512T577 534T534
547T487 554T444 556T412 556Q326 556 256 583T135 659T56 779T28 936Q28 1054 75 1147T202 1306T385 1407T598 1442Q647 1442 699 1439T802 1426T903 1403T996 1368L958 962Q890 985 816 1000T670 1016Q657 1016 637 1016T594 1013T548 1005T507 992T478 969T468
936Q469 914 484 902T524 885T578 879T637 880T691 883T732 884Q812 879 876 850T984 773T1052 659T1076 512Z" />
<glyph unicode="t" glyph-name="t" horiz-adv-x="1116" d="M1110 1410L1100 986L802 974L766 46L344 24L306 952L8 936L20 1408L1110 1410Z" />
<glyph unicode="u" glyph-name="u" horiz-adv-x="1252" d="M1243 1408Q1198 1056 1166 708T1105 6L695 -24L713 130Q693 107 667 90T610 63T548 48T487 44Q419 45 359 70T249 138T159 237T92 356T50 484T35 610Q35 700 38 796T51 990T74 1182T111 1364Q233 1358
356 1353T601 1350Q578 1263 556 1176T515 1000T486 822T475 642Q475 621 477 582T487 505T513 439T563 410Q601 410 631 442T684 530T723 657T751 807T770 966T780 1116T785 1243T787 1330Q787 1350 786 1369T783 1408Q848 1406 912 1405T1041 1404Q1091 1404
1141 1404T1243 1408Z" />
<glyph unicode="v" glyph-name="v" horiz-adv-x="1258" d="M1278 1402L912 50L416 22L-34 1328L440 1372L632 612L818 1432L1278 1402Z" />
<glyph unicode="w" glyph-name="w" horiz-adv-x="1863" d="M1857 1388L1623 42L1055 30L933 708L811 82L243 62L7 1348L503 1392L603 602L737 1332H1127L1283 592L1363 1432L1857 1388Z" />
<glyph unicode="x" glyph-name="x" horiz-adv-x="1218" d="M1261 1362L871 724L1223 154L805 24L605 412L393 2L-39 158L329 738L-7 1308L451 1418L615 1056L789 1418L1261 1362Z" />
<glyph unicode="y" glyph-name="y" horiz-adv-x="1240" d="M1284 1354L814 586L828 20H314L326 582L-40 1324L470 1388L630 956L804 1388L1284 1354Z" />
<glyph unicode="z" glyph-name="z" horiz-adv-x="1015" d="M989 1058L531 480H953L967 56L75 20L35 412L557 1052L39 1016L35 1418H971L989 1058Z" />
<glyph unicode="{" glyph-name="braceleft" horiz-adv-x="840" d="M784 1244Q731 1266 672 1266Q610 1266 580 1243T550 1176Q550 1142 559 1110T580 1047T600 983T610 918Q610 835 552 795T386 754Q439 743 483 718T559 660T608 586T626 506Q626 472 615 440T589
375T564 311T552 244Q552 212 573 187T626 143T698 115T776 100L628 -178Q544 -180 465 -153T324 -79T225 26T188 148Q188 183 200 217T227 284T254 352T266 422Q266 459 241 489T177 540T89 569T-6 574L4 850Q15 848 23 848T42 848Q82 848 118 857T181 884T224
927T240 984Q240 1021 228 1057T202 1130T176 1202T164 1276Q164 1340 201 1396T299 1492T439 1556T602 1580Q680 1580 753 1560T892 1510L784 1244Z" />
<glyph unicode="|" glyph-name="bar" horiz-adv-x="588" d="M73 -144L69 1552L517 1542V-144H73Z" />
<glyph unicode="}" glyph-name="braceright" horiz-adv-x="824" d="M820 550Q812 550 802 551T782 552Q741 552 706 543T645 516T603 474T588 418Q588 380 599 344T623 271T647 198T658 122Q658 57 621 3T524 -92T385 -155T224 -178Q146 -178 72 -159T-68 -110L40
158Q67 147 96 141T154 134Q214 134 246 157T278 226Q278 259 268 291T245 354T223 418T212 484Q212 564 271 606T440 646Q385 656 340 681T263 739T214 811T196 892Q196 927 208 960T234 1025T260 1090T272 1158Q272 1190 251 1214T198 1256T125 1284T48 1300L194
1580Q279 1581 358 1554T498 1480T597 1375T634 1254Q634 1219 622 1185T596 1117T570 1049T558 978Q558 940 583 911T649 861T737 832T832 826L820 550Z" />
<glyph unicode="~" glyph-name="asciitilde" horiz-adv-x="1180" d="M1084 1114Q1116 1045 1136 972T1156 824Q1156 744 1127 670T1047 539T924 448T770 414Q713 414 672 435T601 489T549 560T507 630T469 684T426 706Q410 706 400 698T383 678T375 652T372 626Q372
584 386 542T416 460L72 416Q54 482 42 548T30 680Q30 768 54 842T126 968T241 1050T398 1080Q465 1080 511 1061T588 1012T639 949T674 886T704 838T740 818Q755 818 766 824T786 841T798 865T802 890Q802 931 781 970T738 1042L1084 1114Z" />
<glyph unicode="&#xa0;" glyph-name="nbspace" horiz-adv-x="400" />
<glyph unicode="&#xa1;" glyph-name="exclamdown" horiz-adv-x="570" d="M30 -432L112 620H482L520 -432H30ZM96 928Q96 971 113 1009T158 1076T225 1121T306 1138Q349 1138 387 1122T454 1077T499 1010T516 928Q516 884 500 846T455 779T388 733T306 716Q263
716 225 733T159 778T113 845T96 928Z" />
<glyph unicode="&#xa2;" glyph-name="cent" horiz-adv-x="864" d="M389 -146L399 250Q317 267 251 306T139 399T67 519T41 660Q41 743 64 817T132 952T243 1056T395 1124L377 1552L505 1542L491 1142Q533 1148 581 1148Q632 1148 685 1142T789 1116L761 850Q740
855 719 856T675 858Q622 858 574 847T489 812T429 753T407 668Q407 599 453 565T583 530Q639 530 699 547T807 588L795 292Q766 280 732 270T661 253T589 242T519 238H491L507 -144L389 -146Z" />
<glyph unicode="&#xa3;" glyph-name="sterling" horiz-adv-x="866" d="M683 746L687 658L513 660L503 578H797L769 312L157 272L169 668L41 670L43 750L171 748Q178 818 201 887T270 1011T387 1101T561 1136Q612 1136 665 1130T769 1104L741 838Q720 843 699 845T655
846Q635 845 613 838T572 817T538 785T519 744L683 746Z" />
<glyph unicode="&#xa4;" glyph-name="currency" horiz-adv-x="876" d="M515 709Q515 731 509 751T491 787T465 812T431 821Q413 821 397 812T369 788T350 752T343 709Q343 685 350 664T369 628T397 604T431 595Q467 595 491 628T515 709ZM25 532L126 634Q115 675
115 715Q115 738 118 759T128 801L35 898L245 1114L363 1002Q376 1004 388 1005T415 1007Q433 1007 450 1005T485 999L595 1108L837 912L712 784Q721 751 721 715Q721 695 718 674L851 550L611 306L493 427Q456 419 421 419Q406 419 391 420T362 424L247 306L25
532Z" />
<glyph unicode="&#xa5;" glyph-name="yen" horiz-adv-x="1047" d="M668 462L674 272H302L306 468L168 472L170 552L308 550L310 608L168 612L164 672L270 676L44 1054L414 1092L530 834L656 1092L1006 1072L728 698L810 702L814 600L664 602L666 548H810L814 460L668
462Z" />
<glyph unicode="&#xa6;" glyph-name="brokenbar" horiz-adv-x="590" d="M72 830L68 1552L516 1542V830H72ZM80 -146L74 532H516L518 -144L80 -146Z" />
<glyph unicode="&#xa7;" glyph-name="section" horiz-adv-x="1170" d="M1112 352Q1112 215 1065 116T935 -48T742 -143T504 -174Q455 -174 397 -161T278 -129T163 -87T64 -44L108 348Q193 297 296 271T500 244Q519 244 546 245T597 254T639 277T656 320Q656 339
644 352T613 374T570 387T523 394T480 396T448 396Q362 396 292 423T171 499T92 619T64 776Q64 814 68 849T84 918Q73 950 69 984T64 1056Q64 1174 111 1267T238 1426T421 1527T634 1562Q683 1562 735 1559T838 1546T939 1523T1032 1488L994 1082Q926 1105 852
1120T706 1136Q693 1136 673 1136T630 1133T584 1125T543 1112T514 1089T504 1056Q505 1034 520 1022T560 1005T614 999T673 1000T727 1003T768 1004Q848 999 912 970T1020 893T1088 779T1112 632Q1112 590 1107 553T1094 480Q1112 423 1112 352ZM488 704Q485 678
512 657T584 630Q605 627 624 629T659 637T684 653T696 676Q698 688 692 700T672 722T641 739T600 750Q556 756 525 743T488 704Z" />
<glyph unicode="&#xa8;" glyph-name="dieresis" horiz-adv-x="706" d="M706 1574Q706 1543 695 1517T663 1471T616 1440T558 1428Q529 1428 503 1439T457 1470T426 1516T414 1574Q414 1604 425 1630T456 1677T502 1708T558 1720Q589 1720 616 1709T663 1677T694
1631T706 1574ZM316 1552Q316 1519 304 1490T270 1439T219 1405T158 1392Q125 1392 96 1404T46 1439T13 1490T0 1552Q0 1583 12 1611T46 1660T96 1695T158 1708Q190 1708 219 1695T269 1661T303 1611T316 1552Z" />
<glyph unicode="&#xa9;" glyph-name="copyright" horiz-adv-x="1176" d="M1115 704Q1115 591 1076 490T967 313T800 193T587 148Q475 148 379 190T211 304T100 473T59 682Q59 754 76 823T127 954T206 1067T310 1156T435 1215T577 1236Q698 1236 797 1199T967 1092T1076
924T1115 704ZM999 702Q999 796 969 873T884 1004T752 1088T579 1118Q492 1118 418 1083T290 987T206 849T175 686Q175 599 206 523T293 391T424 303T587 270Q678 270 753 304T883 398T968 535T999 702ZM761 812Q734 818 705 818Q670 818 638 809T580 782T540 736T525
668Q525 612 557 585T643 558Q679 558 719 572T791 604L783 370Q744 350 695 338T601 326Q530 326 472 352T373 424T308 531T285 660Q285 742 308 813T377 936T488 1018T641 1048Q676 1048 711 1043T779 1022L761 812Z" />
<glyph unicode="&#xaa;" glyph-name="ordfeminine" horiz-adv-x="914" d="M918 552L576 514L538 660H378L344 514L-8 544L266 1342L650 1360L918 552ZM512 832L458 1042L408 832H512Z" />
<glyph unicode="&#xab;" glyph-name="guillemotleft" horiz-adv-x="1359" d="M496 232L38 540L24 908L458 1224L618 922L350 738L656 560L496 232ZM1176 232L718 540L704 908L1138 1224L1298 922L1030 738L1336 560L1176 232Z" />
<glyph unicode="&#xac;" glyph-name="logicalnot" horiz-adv-x="1096" d="M629 298L621 604L69 592L57 970L1005 986L1019 322L629 298Z" />
<glyph unicode="&#xad;" glyph-name="uni00AD" horiz-adv-x="783" d="M69 552L65 852L711 882L715 540L69 552Z" />
<glyph unicode="&#xae;" glyph-name="registered" horiz-adv-x="1167" d="M1106 738Q1106 626 1068 526T960 351T795 232T584 188Q473 188 377 229T211 342T100 510T60 716Q60 824 98 923T205 1099T368 1220T574 1266Q693 1266 791 1229T959 1123T1067 957T1106
738ZM990 736Q990 830 961 906T877 1036T745 1119T574 1148Q488 1148 415 1113T288 1018T204 882T174 720Q174 622 213 540T320 402Q322 502 324 601T330 802Q330 916 336 1030Q405 1056 472 1064T614 1072Q671 1072 724 1057T819 1010T885 931T910 822Q910 744
882 693T788 600L878 438Q931 497 960 573T990 736ZM404 348Q487 308 584 308Q643 308 695 322T792 364L682 344L606 558L544 556L534 348H404ZM686 806Q686 848 664 875T596 902Q576 902 558 896L550 710H562Q584 710 606 715T646 732T675 762T686 806Z" />
<glyph unicode="&#xaf;" glyph-name="overscore" horiz-adv-x="654" d="M650 1492L18 1500L0 1738L654 1750L650 1492Z" />
<glyph unicode="&#xb0;" glyph-name="degree" horiz-adv-x="634" d="M620 1134Q620 1072 596 1018T532 924T436 861T320 838Q256 838 201 861T104 924T38 1018T14 1134Q14 1195 38 1248T102 1340T197 1403T314 1426Q378 1426 433 1403T530 1341T596 1248T620 1134ZM414
1128Q414 1150 408 1170T390 1206T364 1231T330 1240Q312 1240 296 1231T268 1207T249 1171T242 1128Q242 1104 249 1083T268 1047T296 1023T330 1014Q366 1014 390 1047T414 1128Z" />
<glyph unicode="&#xb1;" glyph-name="plusminus" horiz-adv-x="962" d="M317 226L315 488L65 492L61 792L311 800V1036L621 1068L625 814L887 822L891 480L629 484L633 222L317 226ZM65 -202L61 98L887 128L891 -214L65 -202Z" />
<glyph unicode="&#xb2;" glyph-name="twosuperior" horiz-adv-x="586" d="M550 1000Q550 968 535 939T496 885T440 838T376 800H540L528 634L42 646V792Q84 802 130 819T215 861T279 917T304 988Q304 1020 278 1036T214 1052Q182 1052 151 1041T96 1012L52 1170Q71
1185 95 1195T147 1211T204 1219T260 1222Q321 1222 374 1205T466 1158T527 1088T550 1000Z" />
<glyph unicode="&#xb3;" glyph-name="threesuperior" horiz-adv-x="598" d="M570 818Q570 765 548 726T487 661T392 623T272 610Q212 610 149 626T34 666L54 828Q73 818 97 809T148 793T202 781T254 776Q269 776 284 777T312 783T332 797T340 820Q340 829 330
836T305 849T275 857T250 860Q242 860 232 860T211 858T191 855T176 850L178 964Q187 962 195 962T212 962Q231 962 252 964T292 974T322 992T334 1022Q334 1035 325 1043T302 1056T272 1062T242 1064Q200 1064 160 1054T88 1020L44 1166Q91 1196 152 1211T276
1226Q332 1226 384 1214T475 1177T538 1117T562 1034Q562 1007 543 979T498 934Q540 919 555 886T570 818Z" />
<glyph unicode="&#xb4;" glyph-name="acute" horiz-adv-x="586" d="M586 1642Q467 1577 354 1511T128 1366L0 1506Q20 1530 48 1559T107 1620T173 1682T239 1743Q315 1812 398 1882L586 1642Z" />
<glyph unicode="&#xb5;" glyph-name="mu" horiz-adv-x="1532" d="M44 -348L146 628Q154 717 168 813T201 1005T247 1194T306 1374Q427 1365 549 1358T794 1348Q762 1262 730 1176T670 1002T619 827T586 648Q584 629 581 591T582 514T601 446T648 416Q686 415 720
446T783 531T837 656T882 804T919 961T947 1109T967 1235T978 1322Q984 1358 984 1398Q1042 1396 1106 1394T1235 1389T1363 1387T1486 1388Q1399 1043 1326 695T1184 2L728 -16L768 134Q745 111 716 96T655 71T591 57T530 54H526L480 -358L44 -348Z" />
<glyph unicode="&#xb6;" glyph-name="paragraph" horiz-adv-x="1715" d="M1588 20L1154 18V928L1080 932Q1083 698 1083 469T1084 6L618 -2V402Q537 395 464 397T326 416T210 464T120 546T63 669T42 838Q42 971 86 1077T210 1257T398 1370T634 1410Q875 1410 1061
1402T1377 1383Q1527 1371 1640 1356L1588 20Z" />
<glyph unicode="&#xb7;" glyph-name="middot" horiz-adv-x="462" d="M442 696Q442 652 425 614T380 548T313 503T232 486Q188 486 150 502T84 547T39 614T22 696Q22 739 38 778T83 845T150 891T232 908Q275 908 313 891T379 846T425 778T442 696Z" />
<glyph unicode="&#xb8;" glyph-name="cedilla" horiz-adv-x="424" d="M424 -292Q424 -350 406 -390T354 -455T276 -492T178 -504Q159 -504 135 -502T87 -494T39 -480T0 -458L88 -300Q100 -306 116 -310T146 -314Q164 -314 182 -304T200 -272Q200 -257 191 -248T169
-232T140 -224T114 -222Q94 -222 74 -224T34 -232L48 56L220 54L218 -94Q262 -96 300 -110T365 -149T408 -211T424 -292Z" />
<glyph unicode="&#xb9;" glyph-name="onesuperior" horiz-adv-x="448" d="M400 1184L370 616L144 624L156 1002L72 958L-6 1094L164 1192L400 1184Z" />
<glyph unicode="&#xba;" glyph-name="ordmasculine" horiz-adv-x="902" d="M888 960Q888 878 856 805T765 677T627 590T452 558Q358 558 278 588T138 670T46 793T12 944Q12 1023 44 1095T134 1222T270 1311T442 1344Q543 1344 625 1317T766 1240T856 1119T888
960ZM582 944Q582 969 574 993T549 1037T508 1068T452 1080Q420 1080 394 1070T349 1041T320 1000T310 950Q310 924 318 899T343 854T385 821T442 808Q475 808 501 819T545 850T572 893T582 944Z" />
<glyph unicode="&#xbb;" glyph-name="guillemotright" horiz-adv-x="1365" d="M222 232L58 540L332 722L24 898L182 1224L644 918L656 550L222 232ZM906 232L742 540L1016 722L708 898L866 1224L1328 918L1340 550L906 232Z" />
<glyph unicode="&#xbc;" glyph-name="onequarter" horiz-adv-x="1235" d="M442 1184L414 616L186 624L200 1000L116 958L38 1094L208 1192L442 1184ZM914 1244Q784 965 675 677T472 94L264 170Q322 315 380 459T500 747T628 1030T770 1308L914 1244ZM1176 332L1130
330L1122 158L886 142L898 328L620 322L698 672H894L836 428L906 430L924 734H1150L1136 436L1176 438V332Z" />
<glyph unicode="&#xbd;" glyph-name="onehalf" horiz-adv-x="1256" d="M442 1184L414 616L186 624L198 1000L116 958L38 1094L206 1192L442 1184ZM912 1244Q784 965 675 677T470 94L262 170Q321 315 379 459T499 747T627 1030T768 1308L912 1244ZM1198 486Q1198
454 1183 425T1144 371T1088 324T1024 286H1190L1176 120L690 132V278Q732 288 778 305T863 347T927 403T952 474Q952 506 926 521T862 536Q832 536 800 526T744 498L700 656Q719 671 743 681T795 697T852 705T908 708Q969 708 1022 691T1114 644T1175 574T1198
486Z" />
<glyph unicode="&#xbe;" glyph-name="threequarters" horiz-adv-x="1324" d="M1017 1244Q887 965 778 677T575 94L367 170Q425 315 483 459T603 747T731 1030T873 1308L1017 1244ZM1279 332L1233 330L1225 158L989 142L1001 328L723 322L801 672H997L939 428L1009
430L1027 734H1253L1239 436L1279 438V332ZM579 818Q579 765 557 726T496 661T402 623T281 610Q221 610 159 626T45 666L65 828Q84 817 108 808T159 792T213 780T265 776Q280 776 295 777T323 783T343 797T351 820Q351 829 341 836T316 849T285 857T259 860Q252
860 242 860T222 858T201 854T185 848L189 964Q198 962 206 962T223 962Q242 962 263 964T303 974T333 992T345 1022Q345 1035 336 1043T313 1055T283 1062T253 1064Q211 1064 170 1053T97 1020L55 1166Q102 1196 163 1211T287 1226Q343 1226 395 1214T486 1177T549
1117T573 1032Q573 1006 554 979T507 934Q529 926 543 914T565 886T576 853T579 818Z" />
<glyph unicode="&#xbf;" glyph-name="questiondown" horiz-adv-x="1152" d="M506 654H844Q850 547 832 476T781 358T708 281T629 230T560 188T520 138Q513 120 516 97T536 52T588 17T678 2Q714 2 763 8T867 28T973 61T1068 106L1112 -286Q1075 -309 1029 -332T926
-373T804 -404T662 -416Q539 -416 430 -382T238 -282T108 -120T60 102Q60 197 87 254T156 349T250 411T351 465T442 538T506 654ZM456 918Q456 961 473 999T518 1066T585 1111T666 1128Q709 1128 747 1112T814 1067T859 1000T876 918Q876 874 860 836T815 769T748
723T666 706Q623 706 585 723T519 768T473 835T456 918Z" />
<glyph unicode="&#xc0;" glyph-name="Agrave" horiz-adv-x="1282" d="M1312 86L816 22L756 248H528L478 22L-32 72L366 1404L922 1432L1312 86ZM720 554L644 902L570 554H720ZM578 1450Q468 1533 358 1604T132 1744L330 1978Q410 1903 483 1832Q514 1801 546 1768T609
1703T666 1640T712 1584L578 1450Z" />
<glyph unicode="&#xc1;" glyph-name="Aacute" horiz-adv-x="1282" d="M1312 86L816 22L756 248H528L478 22L-32 72L366 1404L922 1432L1312 86ZM720 554L644 902L570 554H720ZM1178 1744Q1059 1679 946 1613T720 1468L592 1608Q612 1632 640 1661T699 1722T765
1784T831 1845Q907 1914 990 1984L1178 1744Z" />
<glyph unicode="&#xc2;" glyph-name="Acircumflex" horiz-adv-x="1282" d="M1312 86L816 22L756 248H528L478 22L-32 72L366 1404L922 1432L1312 86ZM720 554L644 902L570 554H720ZM782 1460L626 1664L504 1470L284 1564Q303 1595 331 1636T390 1722T453 1811T514
1894L720 1896L994 1590L782 1460Z" />
<glyph unicode="&#xc3;" glyph-name="Atilde" horiz-adv-x="1282" d="M1312 86L816 22L756 248H528L478 22L-32 72L366 1404L922 1432L1312 86ZM720 554L644 902L570 554H720ZM1040 1752Q1040 1694 1019 1644T962 1557T876 1499T770 1478Q726 1478 695 1494T643
1534T606 1586T577 1638T551 1678T520 1694Q509 1694 501 1688T489 1672T482 1652T480 1632Q480 1602 487 1574T506 1518L262 1498Q250 1540 245 1582T240 1666Q240 1727 256 1780T303 1872T381 1933T490 1956Q545 1956 581 1939T641 1897T678 1842T703 1787T724
1745T750 1728Q770 1728 781 1746T792 1782Q792 1812 780 1840T754 1892L1002 1932Q1019 1888 1029 1844T1040 1752Z" />
<glyph unicode="&#xc4;" glyph-name="Adieresis" horiz-adv-x="1282" d="M1312 86L816 22L756 248H528L478 22L-32 72L366 1404L922 1432L1312 86ZM720 554L644 902L570 554H720ZM992 1636Q992 1605 981 1579T949 1533T902 1502T844 1490Q815 1490 789 1501T743
1532T712 1578T700 1636Q700 1666 711 1692T742 1739T788 1770T844 1782Q875 1782 902 1771T949 1739T980 1693T992 1636ZM602 1614Q602 1581 590 1552T556 1501T505 1467T444 1454Q411 1454 382 1466T332 1501T299 1552T286 1614Q286 1645 298 1673T332 1722T382
1757T444 1770Q476 1770 505 1757T555 1723T589 1673T602 1614Z" />
<glyph unicode="&#xc5;" glyph-name="Aring" horiz-adv-x="1270" d="M935 1592Q935 1547 923 1506T887 1430L915 1432L1305 86L809 22L749 248H521L471 22L-39 72L359 1404L395 1406Q363 1444 346 1491T329 1592Q329 1653 353 1706T417 1798T512 1861T629 1884Q693
1884 748 1861T845 1799T911 1706T935 1592ZM729 1586Q729 1608 723 1628T705 1664T679 1689T645 1698Q627 1698 611 1689T583 1665T564 1629T557 1586Q557 1562 564 1541T583 1505T611 1481T645 1472Q681 1472 705 1505T729 1586ZM713 554L637 902L563 554H713Z"
/>
<glyph unicode="&#xc6;" glyph-name="AE" horiz-adv-x="1719" d="M820 554L830 902L670 554H820ZM1736 1442Q1730 1348 1725 1256T1712 1070L1288 1048L1278 922H1576L1554 612L1254 602L1244 456H1668Q1662 346 1656 238T1644 20L782 0L790 248H546L446 22L-50
72L678 1404L1736 1442Z" />
<glyph unicode="&#xc7;" glyph-name="Ccedilla" horiz-adv-x="1056" d="M830 -234Q830 -292 812 -332T760 -397T682 -434T584 -446Q565 -446 541 -444T493 -436T445 -422T406 -400L494 -242Q506 -248 522 -252T552 -256Q570 -256 588 -246T606 -214Q606 -199 597
-190T575 -174T546 -166T520 -164Q500 -164 480 -166T440 -174L450 36Q354 62 274 117T136 249T46 421T14 624Q14 795 63 946T207 1212T442 1392T766 1458Q835 1458 907 1447T1042 1406L986 984Q957 992 928 995T870 998Q796 998 729 979T611 919T529 819T498 678Q498
626 514 588T561 525T632 488T722 476Q759 476 799 484T878 505T954 535T1022 570L982 100Q944 80 900 65T809 38T715 21T624 14V-36Q668 -38 706 -52T771 -91T814 -153T830 -234Z" />
<glyph unicode="&#xc8;" glyph-name="Egrave" horiz-adv-x="981" d="M998 1442Q992 1348 987 1256T974 1070L550 1048L540 922H838L816 612L516 602L506 456H754H930Q924 346 918 238T906 20L44 0L76 1442H998ZM554 1478Q444 1561 334 1632T108 1772L306 2006Q386
1931 459 1860Q490 1829 522 1796T585 1731T642 1668T688 1612L554 1478Z" />
<glyph unicode="&#xc9;" glyph-name="Eacute" horiz-adv-x="981" d="M998 1442Q992 1348 987 1256T974 1070L550 1048L540 922H838L816 612L516 602L506 456H754H930Q924 346 918 238T906 20L44 0L76 1442H998ZM1014 1746Q895 1681 782 1615T556 1470L428 1610Q448
1634 476 1663T535 1724T601 1786T667 1847Q743 1916 826 1986L1014 1746Z" />
<glyph unicode="&#xca;" glyph-name="Ecircumflex" horiz-adv-x="981" d="M998 1442Q992 1348 987 1256T974 1070L550 1048L540 922H838L816 612L516 602L506 456H754H930Q924 346 918 238T906 20L44 0L76 1442H998ZM664 1478L508 1682L386 1488L166 1582Q185
1613 213 1654T272 1740T335 1829T396 1912L602 1914L876 1608L664 1478Z" />
<glyph unicode="&#xcb;" glyph-name="Edieresis" horiz-adv-x="981" d="M998 1442Q992 1348 987 1256T974 1070L550 1048L540 922H838L816 612L516 602L506 456H754H930Q924 346 918 238T906 20L44 0L76 1442H998ZM874 1666Q874 1635 863 1609T831 1563T784 1532T726
1520Q697 1520 671 1531T625 1562T594 1608T582 1666Q582 1696 593 1722T624 1769T670 1800T726 1812Q757 1812 784 1801T831 1769T862 1723T874 1666ZM484 1644Q484 1611 472 1582T438 1531T387 1497T326 1484Q293 1484 264 1496T214 1531T181 1582T168 1644Q168
1675 180 1703T214 1752T264 1787T326 1800Q358 1800 387 1787T437 1753T471 1703T484 1644Z" />
<glyph unicode="&#xcc;" glyph-name="Igrave" horiz-adv-x="609" d="M591 1408L481 46L59 24V1380L591 1408ZM268 1450Q158 1533 48 1604T-178 1744L20 1978Q100 1903 173 1832Q204 1801 236 1768T299 1703T356 1640T402 1584L268 1450Z" />
<glyph unicode="&#xcd;" glyph-name="Iacute" horiz-adv-x="609" d="M591 1408L481 46L59 24V1380L591 1408ZM843 1736Q724 1671 611 1605T385 1460L257 1600Q277 1624 305 1653T364 1714T430 1776T496 1837Q572 1906 655 1976L843 1736Z" />
<glyph unicode="&#xce;" glyph-name="Icircumflex" horiz-adv-x="609" d="M591 1408L481 46L59 24V1380L591 1408ZM726 1450L570 1654L448 1460L228 1554Q247 1585 275 1626T334 1712T397 1801T458 1884L664 1886L938 1580L726 1450Z" />
<glyph unicode="&#xcf;" glyph-name="Idieresis" horiz-adv-x="609" d="M591 1408L481 46L59 24V1380L591 1408ZM936 1616Q936 1585 925 1559T893 1513T846 1482T788 1470Q759 1470 733 1481T687 1512T656 1558T644 1616Q644 1646 655 1672T686 1719T732 1750T788
1762Q819 1762 846 1751T893 1719T924 1673T936 1616ZM546 1594Q546 1561 534 1532T500 1481T449 1447T388 1434Q355 1434 326 1446T276 1481T243 1532T230 1594Q230 1625 242 1653T276 1702T326 1737T388 1750Q420 1750 449 1737T499 1703T533 1653T546 1594Z"
/>
<glyph unicode="&#xd0;" glyph-name="Eth" horiz-adv-x="1262" d="M127 776L141 1360Q251 1395 367 1409T599 1424Q742 1424 862 1381T1069 1257T1204 1059T1253 794Q1253 654 1217 542T1117 342T963 191T768 88T542 28T297 8Q250 8 205 10T113 18L125 604L-25
598L-29 780L127 776ZM843 730Q844 784 832 834T791 922T718 984T613 1010L597 770L697 768L701 628L591 622L573 390Q633 399 682 429T766 504T821 603T843 716V730Z" />
<glyph unicode="&#xd1;" glyph-name="Ntilde" horiz-adv-x="1441" d="M1411 1434L1339 78L815 30L535 756L491 16H41L77 1434L577 1458L923 738L939 1418L1411 1434ZM1125 1752Q1125 1694 1104 1644T1047 1557T961 1499T855 1478Q811 1478 780 1494T728 1534T691
1586T662 1638T636 1678T605 1694Q594 1694 586 1688T574 1672T567 1652T565 1632Q565 1602 572 1574T591 1518L347 1498Q335 1540 330 1582T325 1666Q325 1727 341 1780T388 1872T466 1933T575 1956Q630 1956 666 1939T726 1897T763 1842T788 1787T809 1745T835
1728Q855 1728 866 1746T877 1782Q877 1812 865 1840T839 1892L1087 1932Q1104 1888 1114 1844T1125 1752Z" />
<glyph unicode="&#xd2;" glyph-name="Ograve" horiz-adv-x="1306" d="M1287 706Q1287 615 1266 531T1206 372T1110 237T983 131T829 63T653 38Q563 38 482 61T329 125T201 225T103 355T40 509T17 680Q17 767 38 850T98 1008T194 1144T319 1251T470 1321T641 1346Q786
1346 905 1301T1109 1173T1240 971T1287 706ZM843 680Q843 723 831 763T794 835T735 886T653 906Q606 906 569 889T506 843T465 774T451 690Q451 648 463 606T499 530T558 475T641 454Q688 454 725 472T789 522T829 595T843 680ZM551 1404Q441 1487 331 1558T105
1698L303 1932Q383 1857 456 1786Q487 1755 519 1722T582 1657T639 1594T685 1538L551 1404Z" />
<glyph unicode="&#xd3;" glyph-name="Oacute" horiz-adv-x="1306" d="M1287 706Q1287 615 1266 531T1206 372T1110 237T983 131T829 63T653 38Q563 38 482 61T329 125T201 225T103 355T40 509T17 680Q17 767 38 850T98 1008T194 1144T319 1251T470 1321T641 1346Q786
1346 905 1301T1109 1173T1240 971T1287 706ZM843 680Q843 723 831 763T794 835T735 886T653 906Q606 906 569 889T506 843T465 774T451 690Q451 648 463 606T499 530T558 475T641 454Q688 454 725 472T789 522T829 595T843 680ZM1173 1660Q1054 1595 941 1529T715
1384L587 1524Q607 1548 635 1577T694 1638T760 1700T826 1761Q902 1830 985 1900L1173 1660Z" />
<glyph unicode="&#xd4;" glyph-name="Ocircumflex" horiz-adv-x="1306" d="M1287 706Q1287 615 1266 531T1206 372T1110 237T983 131T829 63T653 38Q563 38 482 61T329 125T201 225T103 355T40 509T17 680Q17 767 38 850T98 1008T194 1144T319 1251T470 1321T641
1346Q786 1346 905 1301T1109 1173T1240 971T1287 706ZM843 680Q843 723 831 763T794 835T735 886T653 906Q606 906 569 889T506 843T465 774T451 690Q451 648 463 606T499 530T558 475T641 454Q688 454 725 472T789 522T829 595T843 680ZM795 1384L639 1588L517
1394L297 1488Q316 1519 344 1560T403 1646T466 1735T527 1818L733 1820L1007 1514L795 1384Z" />
<glyph unicode="&#xd5;" glyph-name="Otilde" horiz-adv-x="1306" d="M1287 706Q1287 615 1266 531T1206 372T1110 237T983 131T829 63T653 38Q563 38 482 61T329 125T201 225T103 355T40 509T17 680Q17 767 38 850T98 1008T194 1144T319 1251T470 1321T641 1346Q786
1346 905 1301T1109 1173T1240 971T1287 706ZM843 680Q843 723 831 763T794 835T735 886T653 906Q606 906 569 889T506 843T465 774T451 690Q451 648 463 606T499 530T558 475T641 454Q688 454 725 472T789 522T829 595T843 680ZM1051 1668Q1051 1610 1030 1560T973
1473T887 1415T781 1394Q737 1394 706 1410T654 1450T617 1502T588 1554T562 1594T531 1610Q520 1610 512 1604T500 1588T493 1568T491 1548Q491 1518 498 1490T517 1434L273 1414Q261 1456 256 1498T251 1582Q251 1643 267 1696T314 1788T392 1849T501 1872Q556
1872 592 1855T652 1813T689 1758T714 1703T735 1661T761 1644Q781 1644 792 1662T803 1698Q803 1728 791 1756T765 1808L1013 1848Q1030 1804 1040 1760T1051 1668Z" />
<glyph unicode="&#xd6;" glyph-name="Odieresis" horiz-adv-x="1306" d="M1287 706Q1287 615 1266 531T1206 372T1110 237T983 131T829 63T653 38Q563 38 482 61T329 125T201 225T103 355T40 509T17 680Q17 767 38 850T98 1008T194 1144T319 1251T470 1321T641
1346Q786 1346 905 1301T1109 1173T1240 971T1287 706ZM843 680Q843 723 831 763T794 835T735 886T653 906Q606 906 569 889T506 843T465 774T451 690Q451 648 463 606T499 530T558 475T641 454Q688 454 725 472T789 522T829 595T843 680ZM1005 1563Q1005 1532
994 1506T962 1460T915 1429T857 1417Q828 1417 802 1428T756 1459T725 1505T713 1563Q713 1593 724 1619T755 1666T801 1697T857 1709Q888 1709 915 1698T962 1666T993 1620T1005 1563ZM615 1541Q615 1508 603 1479T569 1428T518 1394T457 1381Q424 1381 395 1393T345
1428T312 1479T299 1541Q299 1572 311 1600T345 1649T395 1684T457 1697Q489 1697 518 1684T568 1650T602 1600T615 1541Z" />
<glyph unicode="&#xd7;" glyph-name="multiply" horiz-adv-x="913" d="M44 462L228 648L54 828L264 1044L446 872L614 1038L856 842L678 660L870 480L630 236L448 424L266 236L44 462Z" />
<glyph unicode="&#xd8;" glyph-name="Oslash" horiz-adv-x="1303" d="M1148 1320L1088 1190Q1183 1105 1234 983T1286 706Q1286 615 1265 531T1205 372T1109 237T982 131T828 63T652 38L596 -118L196 38L252 178Q197 221 154 276T80 396T33 531T16 680Q16 767
37 850T97 1008T193 1144T318 1251T469 1321T640 1346Q673 1346 704 1344T766 1336L828 1460L1148 1320ZM450 690Q450 658 456 627T476 566L624 904Q583 899 551 880T497 833T462 767T450 690ZM842 680Q842 704 838 728T824 776L678 458Q716 465 746 486T798 537T830
603T842 680Z" />
<glyph unicode="&#xd9;" glyph-name="Ugrave" horiz-adv-x="1276" d="M1247 1112Q1247 1038 1240 949T1217 765T1176 573T1112 385T1024 217T908 80T761 -12T581 -46Q465 -46 380 -9T233 92T133 240T72 419T42 612T33 802Q33 942 47 1081T87 1360L555 1342Q528
1185 509 1027T489 708Q489 691 490 658T496 583T507 498T528 418T559 359T603 336Q632 336 655 363T695 437T726 543T748 668T762 798T771 919T776 1018T777 1082Q777 1160 775 1237T767 1392H1235Q1247 1254 1247 1112ZM603 1396Q493 1479 383 1550T157 1690L355
1924Q435 1849 508 1778Q539 1747 571 1714T634 1649T691 1586T737 1530L603 1396Z" />
<glyph unicode="&#xda;" glyph-name="Uacute" horiz-adv-x="1276" d="M1247 1112Q1247 1038 1240 949T1217 765T1176 573T1112 385T1024 217T908 80T761 -12T581 -46Q465 -46 380 -9T233 92T133 240T72 419T42 612T33 802Q33 942 47 1081T87 1360L555 1342Q528
1185 509 1027T489 708Q489 691 490 658T496 583T507 498T528 418T559 359T603 336Q632 336 655 363T695 437T726 543T748 668T762 798T771 919T776 1018T777 1082Q777 1160 775 1237T767 1392H1235Q1247 1254 1247 1112ZM1171 1666Q1052 1601 939 1535T713 1390L585
1530Q605 1554 633 1583T692 1644T758 1706T824 1767Q900 1836 983 1906L1171 1666Z" />
<glyph unicode="&#xdb;" glyph-name="Ucircumflex" horiz-adv-x="1276" d="M1247 1112Q1247 1038 1240 949T1217 765T1176 573T1112 385T1024 217T908 80T761 -12T581 -46Q465 -46 380 -9T233 92T133 240T72 419T42 612T33 802Q33 942 47 1081T87 1360L555 1342Q528
1185 509 1027T489 708Q489 691 490 658T496 583T507 498T528 418T559 359T603 336Q632 336 655 363T695 437T726 543T748 668T762 798T771 919T776 1018T777 1082Q777 1160 775 1237T767 1392H1235Q1247 1254 1247 1112ZM783 1418L627 1622L505 1428L285 1522Q304
1553 332 1594T391 1680T454 1769T515 1852L721 1854L995 1548L783 1418Z" />
<glyph unicode="&#xdc;" glyph-name="Udieresis" horiz-adv-x="1276" d="M1247 1112Q1247 1038 1240 949T1217 765T1176 573T1112 385T1024 217T908 80T761 -12T581 -46Q465 -46 380 -9T233 92T133 240T72 419T42 612T33 802Q33 942 47 1081T87 1360L555 1342Q528
1185 509 1027T489 708Q489 691 490 658T496 583T507 498T528 418T559 359T603 336Q632 336 655 363T695 437T726 543T748 668T762 798T771 919T776 1018T777 1082Q777 1160 775 1237T767 1392H1235Q1247 1254 1247 1112ZM993 1598Q993 1567 982 1541T950 1495T903
1464T845 1452Q816 1452 790 1463T744 1494T713 1540T701 1598Q701 1628 712 1654T743 1701T789 1732T845 1744Q876 1744 903 1733T950 1701T981 1655T993 1598ZM603 1576Q603 1543 591 1514T557 1463T506 1429T445 1416Q412 1416 383 1428T333 1463T300 1514T287
1576Q287 1607 299 1635T333 1684T383 1719T445 1732Q477 1732 506 1719T556 1685T590 1635T603 1576Z" />
<glyph unicode="&#xdd;" glyph-name="Yacute" horiz-adv-x="1243" d="M1336 1354L786 586L760 -40H286L298 582L12 1324L522 1388L602 956L856 1388L1336 1354ZM1212 1666Q1093 1601 980 1535T754 1390L626 1530Q646 1554 674 1583T733 1644T799 1706T865 1767Q941
1836 1024 1906L1212 1666Z" />
<glyph unicode="&#xde;" glyph-name="Thorn" horiz-adv-x="1226" d="M58 1430L582 1464L570 1206H588Q665 1206 742 1194T889 1154T1020 1087T1125 990T1194 862T1220 702Q1220 605 1191 530T1112 399T993 304T848 241T687 205T524 192V-14H58V1430ZM776 668Q776
733 737 769T634 806Q613 806 591 803T548 794L536 502Q550 500 563 500T590 500Q626 500 659 512T719 546T760 599T776 668Z" />
<glyph unicode="&#xdf;" glyph-name="germandbls" horiz-adv-x="2137" d="M1076 512Q1076 375 1029 276T899 112T706 17T468 -14Q419 -14 361 -1T242 31T127 73T28 116L72 508Q157 457 260 431T464 404Q483 404 510 405T561 414T603 437T620 480Q620 499 608 512T577
534T534 547T487 554T444 556T412 556Q326 556 256 583T135 659T56 779T28 936Q28 1054 75 1147T202 1306T385 1407T598 1442Q647 1442 699 1439T802 1426T903 1403T996 1368L958 962Q890 985 816 1000T670 1016Q657 1016 637 1016T594 1013T548 1005T507 992T478
969T468 936Q469 914 484 902T524 885T578 879T637 880T691 883T732 884Q812 879 876 850T984 773T1052 659T1076 512ZM2124 512Q2124 375 2077 276T1947 112T1754 17T1516 -14Q1467 -14 1409 -1T1290 31T1175 73T1076 116L1120 508Q1205 457 1308 431T1512 404Q1531
404 1558 405T1609 414T1651 437T1668 480Q1668 499 1656 512T1625 534T1582 547T1535 554T1492 556T1460 556Q1374 556 1304 583T1183 659T1104 779T1076 936Q1076 1054 1123 1147T1250 1306T1433 1407T1646 1442Q1695 1442 1747 1439T1850 1426T1951 1403T2044
1368L2006 962Q1938 985 1864 1000T1718 1016Q1705 1016 1685 1016T1642 1013T1596 1005T1555 992T1526 969T1516 936Q1517 914 1532 902T1572 885T1626 879T1685 880T1739 883T1780 884Q1860 879 1924 850T2032 773T2100 659T2124 512Z" />
<glyph unicode="&#xe0;" glyph-name="agrave" horiz-adv-x="1282" d="M1312 86L816 22L756 248H528L478 22L-32 72L366 1404L922 1432L1312 86ZM720 554L644 902L570 554H720ZM558 1442Q448 1525 338 1596T112 1736L310 1970Q390 1895 463 1824Q494 1793 526 1760T589
1695T646 1632T692 1576L558 1442Z" />
<glyph unicode="&#xe1;" glyph-name="aacute" horiz-adv-x="1282" d="M1312 86L816 22L756 248H528L478 22L-32 72L366 1404L922 1432L1312 86ZM720 554L644 902L570 554H720ZM1188 1740Q1069 1675 956 1609T730 1464L602 1604Q622 1628 650 1657T709 1718T775
1780T841 1841Q917 1910 1000 1980L1188 1740Z" />
<glyph unicode="&#xe2;" glyph-name="acircumflex" horiz-adv-x="1282" d="M1312 86L816 22L756 248H528L478 22L-32 72L366 1404L922 1432L1312 86ZM720 554L644 902L570 554H720ZM782 1454L626 1658L504 1464L284 1558Q303 1589 331 1630T390 1716T453 1805T514
1888L720 1890L994 1584L782 1454Z" />
<glyph unicode="&#xe3;" glyph-name="atilde" horiz-adv-x="1282" d="M1312 86L816 22L756 248H528L478 22L-32 72L366 1404L922 1432L1312 86ZM720 554L644 902L570 554H720ZM1040 1732Q1040 1674 1019 1624T962 1537T876 1479T770 1458Q726 1458 695 1474T643
1514T606 1566T577 1618T551 1658T520 1674Q509 1674 501 1668T489 1652T482 1632T480 1612Q480 1582 487 1554T506 1498L262 1478Q250 1520 245 1562T240 1646Q240 1707 256 1760T303 1852T381 1913T490 1936Q545 1936 581 1919T641 1877T678 1822T703 1767T724
1725T750 1708Q770 1708 781 1726T792 1762Q792 1792 780 1820T754 1872L1002 1912Q1019 1868 1029 1824T1040 1732Z" />
<glyph unicode="&#xe4;" glyph-name="adieresis" horiz-adv-x="1282" d="M1312 86L816 22L756 248H528L478 22L-32 72L366 1404L922 1432L1312 86ZM720 554L644 902L570 554H720ZM992 1636Q992 1605 981 1579T949 1533T902 1502T844 1490Q815 1490 789 1501T743
1532T712 1578T700 1636Q700 1666 711 1692T742 1739T788 1770T844 1782Q875 1782 902 1771T949 1739T980 1693T992 1636ZM602 1614Q602 1581 590 1552T556 1501T505 1467T444 1454Q411 1454 382 1466T332 1501T299 1552T286 1614Q286 1645 298 1673T332 1722T382
1757T444 1770Q476 1770 505 1757T555 1723T589 1673T602 1614Z" />
<glyph unicode="&#xe5;" glyph-name="aring" horiz-adv-x="1270" d="M935 1568Q935 1495 901 1430L915 1432L1305 86L809 22L749 248H521L471 22L-39 72L359 1404H379Q355 1439 342 1480T329 1568Q329 1629 353 1682T417 1774T512 1837T629 1860Q693 1860 748
1837T845 1775T911 1682T935 1568ZM729 1562Q729 1584 723 1604T705 1640T679 1665T645 1674Q627 1674 611 1665T583 1641T564 1605T557 1562Q557 1538 564 1517T583 1481T611 1457T645 1448Q681 1448 705 1481T729 1562ZM713 554L637 902L563 554H713Z" />
<glyph unicode="&#xe6;" glyph-name="ae" horiz-adv-x="1880" d="M1866 808Q1866 721 1854 634Q1683 623 1515 599T1178 550L1184 528Q1211 465 1265 429T1390 392Q1430 392 1477 407T1572 444T1662 493T1736 540L1688 86Q1649 56 1604 35T1509 1T1410 -18T1312
-24Q1208 -24 1116 0T952 62T832 149T770 248H532L478 22L-32 72L366 1404L922 1432L960 1302Q1034 1370 1130 1409T1348 1448Q1437 1448 1510 1424T1641 1356T1741 1252T1811 1121T1852 970T1866 808ZM1466 860Q1466 888 1460 917T1441 971T1405 1010T1350 1026Q1310
1026 1280 1005T1227 951T1191 880T1170 810L1466 838V860ZM720 554L644 902L570 554H720Z" />
<glyph unicode="&#xe7;" glyph-name="ccedilla" d="M846 -292Q846 -350 828 -390T776 -455T698 -492T600 -504Q581 -504 557 -502T509 -494T461 -480T422 -458L510 -300Q522 -306 538 -310T568 -314Q586 -314 604 -304T622 -272Q622 -257 613 -248T591 -232T562
-224T536 -222Q516 -222 496 -224T456 -232L466 0Q363 30 280 91T139 237T48 425T16 642Q16 806 62 948T199 1194T423 1358T730 1418Q799 1418 870 1407T1006 1366L970 944Q941 952 913 955T856 958Q785 958 721 940T607 885T528 792T498 658Q498 602 514 561T561
492T635 450T732 436Q769 436 808 443T886 464T961 494T1028 530L1012 60Q973 40 928 25T836 -2T741 -20T650 -26H640V-94Q684 -96 722 -110T787 -149T830 -211T846 -292Z" />
<glyph unicode="&#xe8;" glyph-name="egrave" horiz-adv-x="1181" d="M1167 808Q1167 721 1155 634Q984 623 815 599T477 550Q503 478 558 435T691 392Q731 392 778 407T873 444T963 493T1037 540L989 86Q950 56 905 35T810 1T711 -18T613 -24Q514 -24 432 3T284
78T167 193T84 337T34 502T17 678Q17 771 34 864T85 1043T172 1202T295 1331T453 1417T649 1448Q738 1448 811 1424T942 1356T1042 1252T1112 1121T1153 970T1167 808ZM767 860Q767 888 761 917T742 971T706 1010T651 1026Q611 1026 581 1005T528 951T492 880T471
810L767 838V860ZM473 1460Q363 1543 253 1614T27 1754L225 1988Q305 1913 378 1842Q409 1811 441 1778T504 1713T561 1650T607 1594L473 1460Z" />
<glyph unicode="&#xe9;" glyph-name="eacute" horiz-adv-x="1181" d="M1167 808Q1167 721 1155 634Q984 623 815 599T477 550Q503 478 558 435T691 392Q731 392 778 407T873 444T963 493T1037 540L989 86Q950 56 905 35T810 1T711 -18T613 -24Q514 -24 432 3T284
78T167 193T84 337T34 502T17 678Q17 771 34 864T85 1043T172 1202T295 1331T453 1417T649 1448Q738 1448 811 1424T942 1356T1042 1252T1112 1121T1153 970T1167 808ZM767 860Q767 888 761 917T742 971T706 1010T651 1026Q611 1026 581 1005T528 951T492 880T471
810L767 838V860ZM1127 1762Q1008 1697 895 1631T669 1486L541 1626Q561 1650 589 1679T648 1740T714 1802T780 1863Q856 1932 939 2002L1127 1762Z" />
<glyph unicode="&#xea;" glyph-name="ecircumflex" horiz-adv-x="1181" d="M1167 808Q1167 721 1155 634Q984 623 815 599T477 550Q503 478 558 435T691 392Q731 392 778 407T873 444T963 493T1037 540L989 86Q950 56 905 35T810 1T711 -18T613 -24Q514 -24 432
3T284 78T167 193T84 337T34 502T17 678Q17 771 34 864T85 1043T172 1202T295 1331T453 1417T649 1448Q738 1448 811 1424T942 1356T1042 1252T1112 1121T1153 970T1167 808ZM767 860Q767 888 761 917T742 971T706 1010T651 1026Q611 1026 581 1005T528 951T492
880T471 810L767 838V860ZM735 1472L579 1676L457 1482L237 1576Q256 1607 284 1648T343 1734T406 1823T467 1906L673 1908L947 1602L735 1472Z" />
<glyph unicode="&#xeb;" glyph-name="edieresis" horiz-adv-x="1181" d="M1167 808Q1167 721 1155 634Q984 623 815 599T477 550Q503 478 558 435T691 392Q731 392 778 407T873 444T963 493T1037 540L989 86Q950 56 905 35T810 1T711 -18T613 -24Q514 -24 432
3T284 78T167 193T84 337T34 502T17 678Q17 771 34 864T85 1043T172 1202T295 1331T453 1417T649 1448Q738 1448 811 1424T942 1356T1042 1252T1112 1121T1153 970T1167 808ZM767 860Q767 888 761 917T742 971T706 1010T651 1026Q611 1026 581 1005T528 951T492
880T471 810L767 838V860ZM945 1640Q945 1609 934 1583T902 1537T855 1506T797 1494Q768 1494 742 1505T696 1536T665 1582T653 1640Q653 1670 664 1696T695 1743T741 1774T797 1786Q828 1786 855 1775T902 1743T933 1697T945 1640ZM555 1618Q555 1585 543 1556T509
1505T458 1471T397 1458Q364 1458 335 1470T285 1505T252 1556T239 1618Q239 1649 251 1677T285 1726T335 1761T397 1774Q429 1774 458 1761T508 1727T542 1677T555 1618Z" />
<glyph unicode="&#xec;" glyph-name="igrave" horiz-adv-x="602" d="M573 1408L503 46L81 24L41 1380L573 1408ZM217 1426Q107 1509 -3 1580T-229 1720L-31 1954Q49 1879 122 1808Q153 1777 185 1744T248 1679T305 1616T351 1560L217 1426Z" />
<glyph unicode="&#xed;" glyph-name="iacute" horiz-adv-x="602" d="M573 1408L503 46L81 24L41 1380L573 1408ZM805 1712Q686 1647 573 1581T347 1436L219 1576Q239 1600 267 1629T326 1690T392 1752T458 1813Q534 1882 617 1952L805 1712Z" />
<glyph unicode="&#xee;" glyph-name="icircumflex" horiz-adv-x="601" d="M573 1408L503 46L81 24L41 1380L573 1408ZM707 1442L551 1646L429 1452L209 1546Q228 1577 256 1618T315 1704T378 1793T439 1876L645 1878L919 1572L707 1442Z" />
<glyph unicode="&#xef;" glyph-name="idieresis" horiz-adv-x="602" d="M573 1408L503 46L81 24L41 1380L573 1408ZM917 1630Q917 1599 906 1573T874 1527T827 1496T769 1484Q740 1484 714 1495T668 1526T637 1572T625 1630Q625 1660 636 1686T667 1733T713 1764T769
1776Q800 1776 827 1765T874 1733T905 1687T917 1630ZM527 1608Q527 1575 515 1546T481 1495T430 1461T369 1448Q336 1448 307 1460T257 1495T224 1546T211 1608Q211 1639 223 1667T257 1716T307 1751T369 1764Q401 1764 430 1751T480 1717T514 1667T527 1608Z"
/>
<glyph unicode="&#xf0;" glyph-name="eth" horiz-adv-x="1262" d="M127 776L141 1360Q251 1395 367 1409T599 1424Q742 1424 862 1381T1069 1257T1204 1059T1253 794Q1253 654 1217 542T1117 342T963 191T768 88T542 28T297 8Q250 8 205 10T113 18L125 604L-25
598L-29 780L127 776ZM843 730Q844 784 832 834T791 922T718 984T613 1010L597 770L697 768L701 628L591 622L573 390Q633 399 682 429T766 504T821 603T843 716V730Z" />
<glyph unicode="&#xf1;" glyph-name="ntilde" horiz-adv-x="1335" d="M1292 506Q1292 393 1290 283T1282 60L706 70Q736 247 758 423T780 780Q780 793 779 822T775 887T767 962T752 1033T729 1085T696 1106Q662 1106 639 1086T600 1035T575 964T562 886T556 813T554
756Q549 579 546 405T538 52L28 30Q48 383 66 732T96 1434L568 1458L564 1298Q592 1332 624 1362T694 1413T772 1447T860 1460Q945 1460 1009 1432T1119 1356T1196 1243T1246 1103T1275 949T1288 790T1292 639T1292 506ZM1060 1766Q1060 1708 1039 1658T982 1571T896
1513T790 1492Q746 1492 715 1508T663 1548T626 1600T597 1652T571 1692T540 1708Q529 1708 521 1702T509 1686T502 1666T500 1646Q500 1616 507 1588T526 1532L282 1512Q270 1554 265 1596T260 1680Q260 1741 276 1794T323 1886T401 1947T510 1970Q565 1970 601
1953T661 1911T698 1856T723 1801T744 1759T770 1742Q790 1742 801 1760T812 1796Q812 1826 800 1854T774 1906L1022 1946Q1039 1902 1049 1858T1060 1766Z" />
<glyph unicode="&#xf2;" glyph-name="ograve" horiz-adv-x="1306" d="M1287 766Q1287 675 1266 591T1206 432T1110 297T983 191T829 123T653 98Q563 98 482 121T329 185T201 285T103 415T40 569T17 740Q17 827 38 910T98 1068T194 1204T319 1311T470 1381T641
1406Q786 1406 905 1361T1109 1233T1240 1031T1287 766ZM843 740Q843 783 831 823T794 895T735 946T653 966Q606 966 569 949T506 903T465 834T451 750Q451 708 463 666T499 590T558 535T641 514Q688 514 725 532T789 582T829 655T843 740ZM505 1430Q395 1513 285
1584T59 1724L257 1958Q337 1883 410 1812Q441 1781 473 1748T536 1683T593 1620T639 1564L505 1430Z" />
<glyph unicode="&#xf3;" glyph-name="oacute" horiz-adv-x="1306" d="M1287 766Q1287 675 1266 591T1206 432T1110 297T983 191T829 123T653 98Q563 98 482 121T329 185T201 285T103 415T40 569T17 740Q17 827 38 910T98 1068T194 1204T319 1311T470 1381T641
1406Q786 1406 905 1361T1109 1233T1240 1031T1287 766ZM843 740Q843 783 831 823T794 895T735 946T653 966Q606 966 569 949T506 903T465 834T451 750Q451 708 463 666T499 590T558 535T641 514Q688 514 725 532T789 582T829 655T843 740ZM1205 1726Q1086 1661
973 1595T747 1450L619 1590Q639 1614 667 1643T726 1704T792 1766T858 1827Q934 1896 1017 1966L1205 1726Z" />
<glyph unicode="&#xf4;" glyph-name="ocircumflex" horiz-adv-x="1306" d="M1287 766Q1287 675 1266 591T1206 432T1110 297T983 191T829 123T653 98Q563 98 482 121T329 185T201 285T103 415T40 569T17 740Q17 827 38 910T98 1068T194 1204T319 1311T470 1381T641
1406Q786 1406 905 1361T1109 1233T1240 1031T1287 766ZM843 740Q843 783 831 823T794 895T735 946T653 966Q606 966 569 949T506 903T465 834T451 750Q451 708 463 666T499 590T558 535T641 514Q688 514 725 532T789 582T829 655T843 740ZM795 1436L639 1640L517
1446L297 1540Q316 1571 344 1612T403 1698T466 1787T527 1870L733 1872L1007 1566L795 1436Z" />
<glyph unicode="&#xf5;" glyph-name="otilde" horiz-adv-x="1306" d="M1287 766Q1287 675 1266 591T1206 432T1110 297T983 191T829 123T653 98Q563 98 482 121T329 185T201 285T103 415T40 569T17 740Q17 827 38 910T98 1068T194 1204T319 1311T470 1381T641
1406Q786 1406 905 1361T1109 1233T1240 1031T1287 766ZM843 740Q843 783 831 823T794 895T735 946T653 966Q606 966 569 949T506 903T465 834T451 750Q451 708 463 666T499 590T558 535T641 514Q688 514 725 532T789 582T829 655T843 740ZM1051 1714Q1051 1656
1030 1606T973 1519T887 1461T781 1440Q737 1440 706 1456T654 1496T617 1548T588 1600T562 1640T531 1656Q520 1656 512 1650T500 1634T493 1614T491 1594Q491 1564 498 1536T517 1480L273 1460Q261 1502 256 1544T251 1628Q251 1689 267 1742T314 1834T392 1895T501
1918Q556 1918 592 1901T652 1859T689 1804T714 1749T735 1707T761 1690Q781 1690 792 1708T803 1744Q803 1774 791 1802T765 1854L1013 1894Q1030 1850 1040 1806T1051 1714Z" />
<glyph unicode="&#xf6;" glyph-name="odieresis" horiz-adv-x="1306" d="M1287 766Q1287 675 1266 591T1206 432T1110 297T983 191T829 123T653 98Q563 98 482 121T329 185T201 285T103 415T40 569T17 740Q17 827 38 910T98 1068T194 1204T319 1311T470 1381T641
1406Q786 1406 905 1361T1109 1233T1240 1031T1287 766ZM843 740Q843 783 831 823T794 895T735 946T653 966Q606 966 569 949T506 903T465 834T451 750Q451 708 463 666T499 590T558 535T641 514Q688 514 725 532T789 582T829 655T843 740ZM973 1616Q973 1585 962
1559T930 1513T883 1482T825 1470Q796 1470 770 1481T724 1512T693 1558T681 1616Q681 1646 692 1672T723 1719T769 1750T825 1762Q856 1762 883 1751T930 1719T961 1673T973 1616ZM583 1594Q583 1561 571 1532T537 1481T486 1447T425 1434Q392 1434 363 1446T313
1481T280 1532T267 1594Q267 1625 279 1653T313 1702T363 1737T425 1750Q457 1750 486 1737T536 1703T570 1653T583 1594Z" />
<glyph unicode="&#xf7;" glyph-name="divide" horiz-adv-x="925" d="M50 492L46 792L872 822L876 480L50 492ZM634 246Q634 208 620 175T580 116T521 77T450 62Q412 62 379 76T320 116T281 174T266 246Q266 284 280 318T320 377T378 417T450 432Q487 432 520 418T579
378T619 318T634 246ZM638 1044Q638 1006 624 973T584 914T525 875T454 860Q416 860 383 874T324 914T285 972T270 1044Q270 1082 284 1116T324 1175T382 1215T454 1230Q491 1230 524 1216T583 1176T623 1116T638 1044Z" />
<glyph unicode="&#xf8;" glyph-name="oslash" horiz-adv-x="1302" d="M1138 1376Q1124 1346 1110 1316T1082 1254Q1179 1169 1232 1046T1286 766Q1286 675 1265 591T1205 432T1109 297T982 191T828 123T652 98H644L586 -62L186 94L244 242Q191 286 149 341T78
459T32 593T16 740Q16 827 37 910T97 1068T193 1204T318 1311T469 1381T640 1406Q670 1406 699 1404T758 1398L818 1516L1138 1376ZM842 740Q842 796 820 846L670 516Q710 522 742 542T796 593T830 661T842 740ZM450 750Q450 721 455 692T472 636L614 962Q576 956
546 937T494 890T462 826T450 750Z" />
<glyph unicode="&#xf9;" glyph-name="ugrave" horiz-adv-x="1252" d="M1243 1408Q1198 1056 1166 708T1105 6L695 -24L713 130Q693 107 667 90T610 63T548 48T487 44Q419 45 359 70T249 138T159 237T92 356T50 484T35 610Q35 700 38 796T51 990T74 1182T111 1364Q233
1358 356 1353T601 1350Q578 1263 556 1176T515 1000T486 822T475 642Q475 621 477 582T487 505T513 439T563 410Q601 410 631 442T684 530T723 657T751 807T770 966T780 1116T785 1243T787 1330Q787 1350 786 1369T783 1408Q848 1406 912 1405T1041 1404Q1091
1404 1141 1404T1243 1408ZM655 1370Q545 1453 435 1524T209 1664L407 1898Q487 1823 560 1752Q591 1721 623 1688T686 1623T743 1560T789 1504L655 1370Z" />
<glyph unicode="&#xfa;" glyph-name="uacute" horiz-adv-x="1252" d="M1243 1408Q1198 1056 1166 708T1105 6L695 -24L713 130Q693 107 667 90T610 63T548 48T487 44Q419 45 359 70T249 138T159 237T92 356T50 484T35 610Q35 700 38 796T51 990T74 1182T111 1364Q233
1358 356 1353T601 1350Q578 1263 556 1176T515 1000T486 822T475 642Q475 621 477 582T487 505T513 439T563 410Q601 410 631 442T684 530T723 657T751 807T770 966T780 1116T785 1243T787 1330Q787 1350 786 1369T783 1408Q848 1406 912 1405T1041 1404Q1091
1404 1141 1404T1243 1408ZM1165 1684Q1046 1619 933 1553T707 1408L579 1548Q599 1572 627 1601T686 1662T752 1724T818 1785Q894 1854 977 1924L1165 1684Z" />
<glyph unicode="&#xfb;" glyph-name="ucircumflex" horiz-adv-x="1252" d="M1243 1408Q1198 1056 1166 708T1105 6L695 -24L713 130Q693 107 667 90T610 63T548 48T487 44Q419 45 359 70T249 138T159 237T92 356T50 484T35 610Q35 700 38 796T51 990T74 1182T111
1364Q233 1358 356 1353T601 1350Q578 1263 556 1176T515 1000T486 822T475 642Q475 621 477 582T487 505T513 439T563 410Q601 410 631 442T684 530T723 657T751 807T770 966T780 1116T785 1243T787 1330Q787 1350 786 1369T783 1408Q848 1406 912 1405T1041 1404Q1091
1404 1141 1404T1243 1408ZM781 1440L625 1644L503 1450L283 1544Q302 1575 330 1616T389 1702T452 1791T513 1874L719 1876L993 1570L781 1440Z" />
<glyph unicode="&#xfc;" glyph-name="udieresis" horiz-adv-x="1252" d="M1243 1408Q1198 1056 1166 708T1105 6L695 -24L713 130Q693 107 667 90T610 63T548 48T487 44Q419 45 359 70T249 138T159 237T92 356T50 484T35 610Q35 700 38 796T51 990T74 1182T111
1364Q233 1358 356 1353T601 1350Q578 1263 556 1176T515 1000T486 822T475 642Q475 621 477 582T487 505T513 439T563 410Q601 410 631 442T684 530T723 657T751 807T770 966T780 1116T785 1243T787 1330Q787 1350 786 1369T783 1408Q848 1406 912 1405T1041 1404Q1091
1404 1141 1404T1243 1408ZM991 1610Q991 1579 980 1553T948 1507T901 1476T843 1464Q814 1464 788 1475T742 1506T711 1552T699 1610Q699 1640 710 1666T741 1713T787 1744T843 1756Q874 1756 901 1745T948 1713T979 1667T991 1610ZM601 1588Q601 1555 589 1526T555
1475T504 1441T443 1428Q410 1428 381 1440T331 1475T298 1526T285 1588Q285 1619 297 1647T331 1696T381 1731T443 1744Q475 1744 504 1731T554 1697T588 1647T601 1588Z" />
<glyph unicode="&#xfd;" glyph-name="yacute" horiz-adv-x="1240" d="M1284 1354L814 586L828 20H314L326 582L-40 1324L470 1388L630 956L804 1388L1284 1354ZM1168 1642Q1049 1577 936 1511T710 1366L582 1506Q602 1530 630 1559T689 1620T755 1682T821 1743Q897
1812 980 1882L1168 1642Z" />
<glyph unicode="&#xfe;" glyph-name="thorn" horiz-adv-x="1226" d="M58 1430L582 1464L570 1206H588Q665 1206 742 1194T889 1154T1020 1087T1125 990T1194 862T1220 702Q1220 605 1191 530T1112 399T993 304T848 241T687 205T524 192V-14H58V1430ZM776 668Q776
733 737 769T634 806Q613 806 591 803T548 794L536 502Q550 500 563 500T590 500Q626 500 659 512T719 546T760 599T776 668Z" />
<glyph unicode="&#xff;" glyph-name="ydieresis" horiz-adv-x="1240" d="M1284 1354L814 586L828 20H314L326 582L-40 1324L470 1388L630 956L804 1388L1284 1354ZM974 1622Q974 1591 963 1565T931 1519T884 1488T826 1476Q797 1476 771 1487T725 1518T694 1564T682
1622Q682 1652 693 1678T724 1725T770 1756T826 1768Q857 1768 884 1757T931 1725T962 1679T974 1622ZM584 1600Q584 1567 572 1538T538 1487T487 1453T426 1440Q393 1440 364 1452T314 1487T281 1538T268 1600Q268 1631 280 1659T314 1708T364 1743T426 1756Q458
1756 487 1743T537 1709T571 1659T584 1600Z" />
<glyph unicode="&#x2013;" glyph-name="endash" horiz-adv-x="959" d="M71 512L67 832L883 862L887 500L71 512Z" />
<glyph unicode="&#x2014;" glyph-name="emdash" horiz-adv-x="1777" d="M71 512L67 832L1701 872L1705 510L71 512Z" />
<glyph unicode="&#x2018;" glyph-name="quoteleft" horiz-adv-x="444" d="M14 1078Q15 1125 34 1182T90 1294T176 1399T290 1482Q291 1443 293 1404Q295 1371 296 1334T300 1268Q362 1245 398 1191T434 1072Q434 1029 418 991T373 925T306 879T224 862Q181 862
143 879T76 924T30 991T14 1072V1078Z" />
<glyph unicode="&#x2019;" glyph-name="quoteright" horiz-adv-x="440" d="M430 1262Q429 1215 410 1158T354 1046T268 941T154 858Q154 859 153 881T151 936T147 1006T144 1072Q82 1095 46 1149T10 1268Q10 1311 26 1349T71 1415T138 1461T220 1478Q263 1478
301 1461T368 1416T414 1349T430 1268V1262Z" />
<glyph unicode="&#x201a;" glyph-name="quotesinglbase" horiz-adv-x="462" d="M440 142Q439 95 420 38T364 -74T278 -179T164 -262Q164 -261 163 -239T161 -184T157 -114T154 -48Q92 -25 56 29T20 148Q20 191 36 229T81 295T148 341T230 358Q273 358 311 341T378
296T424 229T440 148V142Z" />
<glyph unicode="&#x201c;" glyph-name="quotedblleft" horiz-adv-x="914" d="M484 1076Q485 1123 504 1180T560 1292T646 1397T760 1480Q760 1481 761 1459T763 1403T766 1333T770 1266Q832 1243 868 1189T904 1070Q904 1027 888 989T843 923T776 877T694 860Q651
860 613 877T546 922T500 989T484 1070V1076ZM14 1076Q15 1123 34 1180T90 1292T176 1397T290 1480Q290 1481 291 1459T293 1403T296 1333T300 1266Q362 1243 398 1189T434 1070Q434 1027 418 989T373 923T306 877T224 860Q181 860 143 877T76 922T30 989T14 1070V1076Z"
/>
<glyph unicode="&#x201d;" glyph-name="quotedblright" horiz-adv-x="910" d="M430 1262Q429 1215 410 1158T354 1046T268 941T154 858Q154 859 153 881T151 936T147 1006T144 1072Q82 1095 46 1149T10 1268Q10 1311 26 1349T71 1415T138 1461T220 1478Q263 1478
301 1461T368 1416T414 1349T430 1268V1262ZM900 1262Q899 1215 880 1158T824 1046T738 941T624 858Q624 859 623 881T621 936T617 1006T614 1072Q552 1095 516 1149T480 1268Q480 1311 496 1349T541 1415T608 1461T690 1478Q733 1478 771 1461T838 1416T884 1349T900
1268V1262Z" />
<glyph unicode="&#x201e;" glyph-name="quotedblbase" horiz-adv-x="932" d="M440 142Q439 95 420 38T364 -74T278 -179T164 -262Q164 -261 163 -239T161 -184T157 -114T154 -48Q92 -25 56 29T20 148Q20 191 36 229T81 295T148 341T230 358Q273 358 311 341T378
296T424 229T440 148V142ZM910 142Q909 95 890 38T834 -74T748 -179T634 -262Q634 -261 633 -239T631 -184T627 -114T624 -48Q562 -25 526 29T490 148Q490 191 506 229T551 295T618 341T700 358Q743 358 781 341T848 296T894 229T910 148V142Z" />
<glyph unicode="&#x2022;" glyph-name="bullet" horiz-adv-x="510" d="M490 782Q490 733 472 690T421 615T346 565T254 546Q206 546 164 564T89 615T39 690T20 782Q20 831 38 874T89 949T163 999T254 1018Q303 1018 346 1000T421 949T471 874T490 782Z" />
<glyph unicode="&#x2039;" glyph-name="guilsinglleft" horiz-adv-x="679" d="M496 232L38 540L24 908L458 1224L618 922L350 738L656 560L496 232Z" />
<glyph unicode="&#x203a;" glyph-name="guilsinglright" horiz-adv-x="681" d="M222 232L58 540L332 722L24 898L182 1224L644 918L656 550L222 232Z" />
</font>
</defs>
</svg>
