<?xml version="1.0" encoding="utf-8"?>
<svg xmlns="http://www.w3.org/2000/svg" width="16" height="16" viewBox="0 0 16 16" fill="none">
<path fill-rule="evenodd" clip-rule="evenodd" d="M12.0275 6.14861C12.1231 7.56649 11.6682 8.96661 10.7575 10.0575L15.0175 14.3176L14.3176 15.0275L10.0575 10.7575C8.96661 11.6682 7.56649 12.1231 6.14861 12.0275C4.73072 11.9319 3.40437 11.2931 2.44561 10.2442C1.48684 9.19523 0.969494 7.81691 1.00139 6.39617C1.03329 4.97542 1.61188 3.62162 2.61675 2.61675C3.62162 1.61188 4.97542 1.03329 6.39617 1.00139C7.81691 0.969494 9.19523 1.48684 10.2442 2.44561C11.2931 3.40437 11.9319 4.73072 12.0275 6.14861ZM6.57756 11.0375C7.77042 11.0354 8.91377 10.5608 9.7575 9.71758L9.71758 9.7376C10.1447 9.32074 10.4849 8.82316 10.7183 8.27385C10.9518 7.72455 11.0739 7.13437 11.0776 6.53752C11.0776 5.64751 10.8136 4.77755 10.3191 4.03752C9.82467 3.2975 9.12188 2.72065 8.29961 2.38005C7.47734 2.03946 6.57255 1.95032 5.69963 2.12395C4.82672 2.29758 4.02489 2.72618 3.39556 3.35552C2.76622 3.98485 2.33762 4.78668 2.16399 5.6596C1.99036 6.53251 2.0795 7.4373 2.42009 8.25957C2.76069 9.08184 3.33742 9.78464 4.07744 10.2791C4.81746 10.7736 5.68755 11.0375 6.57756 11.0375ZM9.01749 7.0376V6.0376H7.01749V4.0376H6.01749V6.0376H4.01749V7.0376H6.01749V9.0376H7.01749V7.0376H9.01749Z" fill="#424242"/>
</svg>
